<?xml version="1.0" encoding="UTF-8"?>
<svg xmlns="http://www.w3.org/2000/svg" xmlns:xlink="http://www.w3.org/1999/xlink" width="336pt" height="252pt" viewBox="0 0 336 252" version="1.1">
<g id="surface1">
<path style="fill:none;stroke-width:5.2;stroke-linecap:butt;stroke-linejoin:miter;stroke:rgb(0%,3.999329%,100%);stroke-opacity:1;stroke-miterlimit:10;" d="M 239.179688 1242.8125 L 244.414062 1258.398438 L 249.609375 1273.984375 L 254.804688 1289.609375 L 260 1305.195312 L 265.195312 1326.015625 L 270.390625 1346.796875 L 275.585938 1357.1875 L 280.820312 1372.8125 L 286.015625 1388.398438 L 291.210938 1398.789062 L 296.40625 1424.804688 L 306.796875 1445.585938 L 311.992188 1461.210938 L 317.1875 1476.796875 L 322.382812 1481.992188 L 327.617188 1502.8125 L 332.8125 1502.8125 L 338.007812 1523.59375 L 343.203125 1518.398438 L 348.398438 1528.789062 L 353.59375 1539.21875 L 358.789062 1549.609375 L 363.984375 1554.804688 L 390 1554.804688 L 395.195312 1544.414062 L 400.390625 1549.609375 L 405.585938 1539.21875 L 410.820312 1528.789062 L 421.210938 1528.789062 L 426.40625 1513.203125 L 431.601562 1508.007812 L 436.796875 1492.382812 L 441.992188 1492.382812 L 447.1875 1487.1875 L 452.382812 1476.796875 L 457.617188 1461.210938 L 462.8125 1440.390625 L 468.007812 1430 L 473.203125 1409.21875 L 478.398438 1409.21875 L 483.59375 1383.203125 L 488.789062 1372.8125 L 493.984375 1346.796875 L 499.179688 1331.210938 L 504.414062 1315.585938 L 514.804688 1284.414062 L 520 1273.984375 L 525.195312 1263.59375 L 530.390625 1242.8125 L 535.585938 1232.382812 L 540.820312 1206.40625 L 546.015625 1190.78125 L 551.210938 1170 L 556.40625 1164.804688 L 561.601562 1149.21875 L 566.796875 1133.59375 L 571.992188 1118.007812 L 577.1875 1107.617188 L 582.382812 1091.992188 L 587.617188 1076.40625 L 592.8125 1066.015625 L 598.007812 1060.78125 L 603.203125 1055.585938 L 608.398438 1045.195312 L 613.59375 1045.195312 L 618.789062 1034.804688 L 629.179688 1034.804688 L 634.414062 1024.414062 L 639.609375 1034.804688 " transform="matrix(0.1,0,0,-0.1,0,252)"/>
<path style="fill:none;stroke-width:5.2;stroke-linecap:butt;stroke-linejoin:miter;stroke:rgb(0%,3.999329%,100%);stroke-opacity:1;stroke-miterlimit:10;" d="M 639.609375 1034.804688 L 644.804688 1029.609375 L 650 1034.804688 L 660.390625 1034.804688 L 665.585938 1040 L 670.820312 1045.195312 L 676.015625 1045.195312 L 681.210938 1060.78125 L 686.40625 1060.78125 L 691.601562 1076.40625 L 701.992188 1086.796875 L 707.1875 1102.382812 L 712.382812 1118.007812 L 717.617188 1123.203125 L 722.8125 1133.59375 L 728.007812 1149.21875 L 738.398438 1180.390625 L 743.59375 1190.78125 L 748.789062 1211.601562 L 753.984375 1216.796875 L 759.179688 1242.8125 L 764.414062 1263.59375 L 769.609375 1289.609375 L 774.804688 1294.804688 L 780 1310.390625 L 785.195312 1326.015625 L 790.390625 1336.40625 L 795.585938 1357.1875 L 800.820312 1372.8125 L 811.210938 1403.984375 L 816.40625 1424.804688 L 826.796875 1445.585938 L 831.992188 1461.210938 L 837.1875 1471.601562 L 842.382812 1487.1875 L 847.617188 1502.8125 L 852.8125 1508.007812 L 858.007812 1518.398438 L 863.203125 1523.59375 L 868.398438 1533.984375 L 873.59375 1539.21875 L 883.984375 1549.609375 L 889.179688 1549.609375 L 894.414062 1554.804688 L 910 1554.804688 L 915.195312 1544.414062 L 920.390625 1544.414062 L 925.585938 1539.21875 L 930.820312 1528.789062 L 936.015625 1528.789062 L 941.210938 1518.398438 L 946.40625 1513.203125 L 951.601562 1502.8125 L 956.796875 1502.8125 L 961.992188 1492.382812 L 967.1875 1481.992188 L 972.382812 1466.40625 L 977.617188 1456.015625 L 982.8125 1445.585938 L 988.007812 1435.195312 L 993.203125 1414.414062 L 998.398438 1409.21875 L 1003.59375 1383.203125 L 1008.789062 1378.007812 L 1013.984375 1357.1875 L 1019.21875 1336.40625 L 1024.414062 1331.210938 L 1029.609375 1315.585938 L 1034.804688 1289.609375 L 1040 1268.789062 L 1045.195312 1258.398438 L 1050.390625 1242.8125 L 1055.585938 1227.1875 L 1060.78125 1201.210938 L 1066.015625 1196.015625 L 1071.210938 1175.195312 L 1081.601562 1154.414062 L 1086.796875 1128.398438 L 1091.992188 1107.617188 L 1097.1875 1107.617188 L 1102.382812 1091.992188 L 1107.617188 1076.40625 L 1112.8125 1071.210938 L 1118.007812 1060.78125 L 1128.398438 1040 L 1133.59375 1040 L 1138.789062 1034.804688 L 1143.984375 1034.804688 L 1149.21875 1024.414062 L 1154.414062 1029.609375 L 1159.609375 1029.609375 " transform="matrix(0.1,0,0,-0.1,0,252)"/>
<path style="fill:none;stroke-width:5.2;stroke-linecap:butt;stroke-linejoin:miter;stroke:rgb(0%,3.999329%,100%);stroke-opacity:1;stroke-miterlimit:10;" d="M 1159.609375 1029.609375 L 1164.804688 1034.804688 L 1175.195312 1024.414062 L 1180.390625 1034.804688 L 1185.585938 1034.804688 L 1190.78125 1040 L 1196.015625 1050.390625 L 1206.40625 1060.78125 L 1211.601562 1071.210938 L 1216.796875 1081.601562 L 1221.992188 1086.796875 L 1227.1875 1097.1875 L 1232.382812 1107.617188 L 1237.617188 1128.398438 L 1242.8125 1138.789062 L 1248.007812 1159.609375 L 1253.203125 1170 L 1258.398438 1185.585938 L 1263.59375 1201.210938 L 1273.984375 1221.992188 L 1279.21875 1237.617188 L 1284.414062 1263.59375 L 1289.609375 1268.789062 L 1294.804688 1279.21875 L 1300 1294.804688 L 1305.195312 1326.015625 L 1310.390625 1336.40625 L 1315.585938 1362.382812 L 1320.78125 1372.8125 L 1326.015625 1393.59375 L 1331.210938 1409.21875 L 1336.40625 1424.804688 L 1341.601562 1435.195312 L 1346.796875 1450.78125 L 1351.992188 1461.210938 L 1357.1875 1466.40625 L 1362.382812 1481.992188 L 1367.617188 1502.8125 L 1372.8125 1502.8125 L 1383.203125 1523.59375 L 1393.59375 1533.984375 L 1398.789062 1533.984375 L 1403.984375 1549.609375 L 1409.21875 1549.609375 L 1414.414062 1560 L 1419.609375 1549.609375 L 1440.390625 1549.609375 L 1445.585938 1544.414062 L 1450.78125 1533.984375 L 1456.015625 1528.789062 L 1461.210938 1518.398438 L 1476.796875 1502.8125 L 1481.992188 1487.1875 L 1492.382812 1466.40625 L 1497.617188 1461.210938 L 1502.8125 1440.390625 L 1508.007812 1430 L 1513.203125 1409.21875 L 1518.398438 1393.59375 L 1523.59375 1393.59375 L 1528.789062 1372.8125 L 1533.984375 1341.601562 L 1539.21875 1341.601562 L 1544.414062 1315.585938 L 1554.804688 1294.804688 L 1560 1263.59375 L 1570.390625 1242.8125 L 1575.585938 1221.992188 L 1580.78125 1206.40625 L 1586.015625 1196.015625 L 1591.210938 1175.195312 L 1596.40625 1170 L 1601.601562 1149.21875 L 1606.796875 1138.789062 L 1611.992188 1118.007812 L 1617.1875 1107.617188 L 1622.382812 1091.992188 L 1627.617188 1076.40625 L 1638.007812 1066.015625 L 1643.203125 1050.390625 L 1648.398438 1050.390625 L 1653.59375 1040 L 1658.789062 1034.804688 L 1663.984375 1034.804688 L 1669.21875 1024.414062 L 1674.414062 1029.609375 L 1679.609375 1024.414062 " transform="matrix(0.1,0,0,-0.1,0,252)"/>
<path style="fill:none;stroke-width:5.2;stroke-linecap:butt;stroke-linejoin:miter;stroke:rgb(0%,3.999329%,100%);stroke-opacity:1;stroke-miterlimit:10;" d="M 1679.609375 1024.414062 L 1684.804688 1024.414062 L 1690 1034.804688 L 1695.195312 1029.609375 L 1705.585938 1040 L 1710.78125 1040 L 1716.015625 1045.195312 L 1721.210938 1055.585938 L 1726.40625 1066.015625 L 1731.601562 1076.40625 L 1736.796875 1081.601562 L 1747.1875 1102.382812 L 1752.382812 1112.8125 L 1757.617188 1128.398438 L 1762.8125 1143.984375 L 1768.007812 1143.984375 L 1773.203125 1159.609375 L 1778.398438 1185.585938 L 1783.59375 1185.585938 L 1788.789062 1211.601562 L 1793.984375 1216.796875 L 1799.21875 1242.8125 L 1804.414062 1268.789062 L 1809.609375 1284.414062 L 1814.804688 1294.804688 L 1820 1315.585938 L 1825.195312 1326.015625 L 1830.390625 1346.796875 L 1835.585938 1357.1875 L 1840.78125 1372.8125 L 1846.015625 1398.789062 L 1851.210938 1398.789062 L 1856.40625 1419.609375 L 1861.601562 1440.390625 L 1866.796875 1450.78125 L 1871.992188 1461.210938 L 1877.1875 1476.796875 L 1882.382812 1487.1875 L 1887.617188 1492.382812 L 1892.8125 1508.007812 L 1903.203125 1528.789062 L 1908.398438 1533.984375 L 1913.59375 1533.984375 L 1918.789062 1544.414062 L 1923.984375 1554.804688 L 1929.21875 1549.609375 L 1934.414062 1554.804688 L 1939.609375 1549.609375 L 1944.804688 1549.609375 L 1950 1544.414062 L 1955.195312 1554.804688 L 1960.390625 1549.609375 L 1965.585938 1539.21875 L 1970.78125 1533.984375 L 1976.015625 1533.984375 L 1981.210938 1518.398438 L 1991.601562 1508.007812 L 1996.796875 1492.382812 L 2001.992188 1481.992188 L 2007.1875 1481.992188 L 2012.382812 1461.210938 L 2017.617188 1461.210938 L 2022.8125 1445.585938 L 2033.203125 1414.414062 L 2038.398438 1393.59375 L 2043.59375 1393.59375 L 2048.789062 1372.8125 L 2053.984375 1357.1875 L 2059.21875 1336.40625 L 2064.414062 1326.015625 L 2069.609375 1300 L 2074.804688 1294.804688 L 2080 1268.789062 L 2085.195312 1258.398438 L 2090.390625 1232.382812 L 2100.78125 1201.210938 L 2106.015625 1190.78125 L 2111.210938 1175.195312 L 2116.40625 1164.804688 L 2121.601562 1143.984375 L 2126.796875 1128.398438 L 2131.992188 1123.203125 L 2137.1875 1102.382812 L 2142.382812 1091.992188 L 2147.617188 1081.601562 L 2152.8125 1071.210938 L 2158.007812 1060.78125 L 2163.203125 1055.585938 L 2173.59375 1034.804688 L 2178.789062 1034.804688 L 2183.984375 1029.609375 L 2189.21875 1029.609375 L 2194.414062 1024.414062 L 2199.609375 1029.609375 " transform="matrix(0.1,0,0,-0.1,0,252)"/>
<path style="fill:none;stroke-width:5.2;stroke-linecap:butt;stroke-linejoin:miter;stroke:rgb(0%,3.999329%,100%);stroke-opacity:1;stroke-miterlimit:10;" d="M 2199.609375 1029.609375 L 2210 1029.609375 L 2215.195312 1034.804688 L 2220.390625 1034.804688 L 2225.585938 1029.609375 L 2230.78125 1045.195312 L 2236.015625 1050.390625 L 2241.210938 1060.78125 L 2246.40625 1066.015625 L 2251.601562 1076.40625 L 2261.992188 1086.796875 L 2267.1875 1102.382812 L 2272.382812 1118.007812 L 2277.617188 1133.59375 L 2282.8125 1143.984375 L 2288.007812 1154.414062 L 2293.203125 1175.195312 L 2298.398438 1185.585938 L 2303.59375 1196.015625 L 2308.789062 1216.796875 L 2313.984375 1221.992188 L 2319.21875 1248.007812 L 2324.414062 1263.59375 L 2329.609375 1279.21875 L 2334.804688 1289.609375 L 2340 1310.390625 L 2345.195312 1331.210938 L 2350.390625 1341.601562 L 2355.585938 1362.382812 L 2360.78125 1372.8125 L 2366.015625 1393.59375 L 2371.210938 1409.21875 L 2381.601562 1440.390625 L 2386.796875 1445.585938 L 2391.992188 1466.40625 L 2402.382812 1487.1875 L 2407.617188 1497.617188 L 2412.8125 1508.007812 L 2418.007812 1513.203125 L 2428.398438 1533.984375 L 2433.59375 1539.21875 L 2443.984375 1549.609375 L 2459.609375 1549.609375 L 2464.804688 1554.804688 L 2470 1554.804688 L 2475.195312 1549.609375 L 2480.390625 1549.609375 L 2485.585938 1533.984375 L 2490.78125 1533.984375 L 2496.015625 1528.789062 L 2501.210938 1523.59375 L 2511.601562 1502.8125 L 2516.796875 1502.8125 L 2521.992188 1487.1875 L 2532.382812 1466.40625 L 2537.617188 1456.015625 L 2542.8125 1440.390625 L 2548.007812 1430 L 2553.203125 1424.804688 L 2558.398438 1398.789062 L 2563.59375 1378.007812 L 2568.789062 1367.617188 L 2573.984375 1351.992188 L 2579.21875 1336.40625 L 2584.414062 1320.78125 L 2589.609375 1300 L 2594.804688 1300 L 2600 1268.789062 L 2605.195312 1258.398438 L 2610.390625 1232.382812 L 2615.585938 1221.992188 L 2620.78125 1201.210938 L 2626.015625 1185.585938 L 2631.210938 1175.195312 L 2636.40625 1159.609375 L 2641.601562 1138.789062 L 2657.1875 1107.617188 L 2662.382812 1091.992188 L 2667.617188 1076.40625 L 2672.8125 1060.78125 L 2678.007812 1050.390625 L 2688.398438 1050.390625 L 2693.59375 1040 L 2698.789062 1034.804688 L 2703.984375 1034.804688 L 2709.21875 1029.609375 L 2714.414062 1024.414062 L 2719.609375 1029.609375 " transform="matrix(0.1,0,0,-0.1,0,252)"/>
<path style="fill:none;stroke-width:5.2;stroke-linecap:butt;stroke-linejoin:miter;stroke:rgb(0%,0%,0%);stroke-opacity:1;stroke-miterlimit:10;" d="M 124.804688 488.789062 L 124.804688 2319.21875 L 2111.210938 2319.21875 M 176.796875 2319.21875 L 176.796875 2303.59375 M 228.789062 2319.21875 L 228.789062 2303.59375 M 280.820312 2319.21875 L 280.820312 2303.59375 M 332.8125 2319.21875 L 332.8125 2303.59375 M 124.804688 2319.21875 L 124.804688 2282.8125 M 436.796875 2319.21875 L 436.796875 2303.59375 M 488.789062 2319.21875 L 488.789062 2303.59375 M 540.820312 2319.21875 L 540.820312 2303.59375 M 592.8125 2319.21875 L 592.8125 2303.59375 M 384.804688 2319.21875 L 384.804688 2282.8125 M 696.796875 2319.21875 L 696.796875 2303.59375 M 748.789062 2319.21875 L 748.789062 2303.59375 M 800.820312 2319.21875 L 800.820312 2303.59375 M 852.8125 2319.21875 L 852.8125 2303.59375 M 644.804688 2319.21875 L 644.804688 2282.8125 M 956.796875 2319.21875 L 956.796875 2303.59375 M 1008.789062 2319.21875 L 1008.789062 2303.59375 M 1060.78125 2319.21875 L 1060.78125 2303.59375 M 1112.8125 2319.21875 L 1112.8125 2303.59375 M 904.804688 2319.21875 L 904.804688 2282.8125 M 1216.796875 2319.21875 L 1216.796875 2303.59375 M 1268.789062 2319.21875 L 1268.789062 2303.59375 M 1320.78125 2319.21875 L 1320.78125 2303.59375 M 1372.8125 2319.21875 L 1372.8125 2303.59375 M 1164.804688 2319.21875 L 1164.804688 2282.8125 M 1476.796875 2319.21875 L 1476.796875 2303.59375 M 1528.789062 2319.21875 L 1528.789062 2303.59375 M 1580.78125 2319.21875 L 1580.78125 2303.59375 M 1632.8125 2319.21875 L 1632.8125 2303.59375 M 1424.804688 2319.21875 L 1424.804688 2282.8125 M 1736.796875 2319.21875 L 1736.796875 2303.59375 M 1788.789062 2319.21875 L 1788.789062 2303.59375 M 1840.78125 2319.21875 L 1840.78125 2303.59375 M 1892.8125 2319.21875 L 1892.8125 2303.59375 M 1684.804688 2319.21875 L 1684.804688 2282.8125 M 1996.796875 2319.21875 L 1996.796875 2303.59375 M 2048.789062 2319.21875 L 2048.789062 2303.59375 M 2100.78125 2319.21875 L 2100.78125 2303.59375 M 1944.804688 2319.21875 L 1944.804688 2282.8125 M 124.804688 2267.1875 L 140.390625 2267.1875 M 124.804688 2215.195312 L 140.390625 2215.195312 M 124.804688 2163.203125 L 140.390625 2163.203125 M 124.804688 2111.210938 L 140.390625 2111.210938 M 124.804688 2319.21875 L 161.210938 2319.21875 M 124.804688 2007.1875 L 140.390625 2007.1875 M 124.804688 1955.195312 L 140.390625 1955.195312 M 124.804688 1903.203125 L 140.390625 1903.203125 M 124.804688 1851.210938 L 140.390625 1851.210938 M 124.804688 2059.21875 L 161.210938 2059.21875 M 124.804688 1747.1875 L 140.390625 1747.1875 M 124.804688 1695.195312 L 140.390625 1695.195312 M 124.804688 1643.203125 L 140.390625 1643.203125 M 124.804688 1591.210938 L 140.390625 1591.210938 M 124.804688 1799.21875 L 161.210938 1799.21875 M 124.804688 1487.1875 L 140.390625 1487.1875 M 124.804688 1435.195312 L 140.390625 1435.195312 M 124.804688 1383.203125 L 140.390625 1383.203125 M 124.804688 1331.210938 L 140.390625 1331.210938 M 124.804688 1539.21875 L 161.210938 1539.21875 M 124.804688 1227.1875 L 140.390625 1227.1875 M 124.804688 1175.195312 L 140.390625 1175.195312 M 124.804688 1123.203125 L 140.390625 1123.203125 M 124.804688 1071.210938 L 140.390625 1071.210938 M 124.804688 1279.21875 L 161.210938 1279.21875 M 124.804688 967.1875 L 140.390625 967.1875 M 124.804688 915.195312 L 140.390625 915.195312 M 124.804688 863.203125 L 140.390625 863.203125 M 124.804688 811.210938 L 140.390625 811.210938 M 124.804688 1019.21875 L 161.210938 1019.21875 M 124.804688 707.1875 L 140.390625 707.1875 M 124.804688 655.195312 L 140.390625 655.195312 M 124.804688 603.203125 L 140.390625 603.203125 M 124.804688 551.210938 L 140.390625 551.210938 M 124.804688 759.179688 L 161.210938 759.179688 M 124.804688 499.179688 L 161.210938 499.179688 M 124.804688 1279.21875 L 2111.210938 1279.21875 M 1424.804688 2319.21875 L 1424.804688 488.789062 M 176.796875 1294.804688 L 176.796875 1258.398438 M 228.789062 1294.804688 L 228.789062 1258.398438 M 280.820312 1294.804688 L 280.820312 1258.398438 M 332.8125 1294.804688 L 332.8125 1258.398438 M 124.804688 1310.390625 L 124.804688 1242.8125 M 436.796875 1294.804688 L 436.796875 1258.398438 M 488.789062 1294.804688 L 488.789062 1258.398438 M 540.820312 1294.804688 L 540.820312 1258.398438 M 592.8125 1294.804688 L 592.8125 1258.398438 M 384.804688 1310.390625 L 384.804688 1242.8125 M 696.796875 1294.804688 L 696.796875 1258.398438 M 748.789062 1294.804688 L 748.789062 1258.398438 M 800.820312 1294.804688 L 800.820312 1258.398438 M 852.8125 1294.804688 L 852.8125 1258.398438 M 644.804688 1310.390625 L 644.804688 1242.8125 M 956.796875 1294.804688 L 956.796875 1258.398438 M 1008.789062 1294.804688 L 1008.789062 1258.398438 M 1060.78125 1294.804688 L 1060.78125 1258.398438 M 1112.8125 1294.804688 L 1112.8125 1258.398438 M 904.804688 1310.390625 L 904.804688 1242.8125 M 1216.796875 1294.804688 L 1216.796875 1258.398438 M 1268.789062 1294.804688 L 1268.789062 1258.398438 M 1320.78125 1294.804688 L 1320.78125 1258.398438 M 1372.8125 1294.804688 L 1372.8125 1258.398438 M 1164.804688 1310.390625 L 1164.804688 1242.8125 M 1476.796875 1294.804688 L 1476.796875 1258.398438 M 1528.789062 1294.804688 L 1528.789062 1258.398438 M 1580.78125 1294.804688 L 1580.78125 1258.398438 M 1632.8125 1294.804688 L 1632.8125 1258.398438 M 1424.804688 1310.390625 L 1424.804688 1242.8125 M 1736.796875 1294.804688 L 1736.796875 1258.398438 M 1788.789062 1294.804688 L 1788.789062 1258.398438 M 1840.78125 1294.804688 L 1840.78125 1258.398438 M 1892.8125 1294.804688 L 1892.8125 1258.398438 M 1684.804688 1310.390625 L 1684.804688 1242.8125 M 1996.796875 1294.804688 L 1996.796875 1258.398438 M 2048.789062 1294.804688 L 2048.789062 1258.398438 M 2100.78125 1294.804688 L 2100.78125 1258.398438 M 1944.804688 1310.390625 L 1944.804688 1242.8125 M 1409.21875 2267.1875 L 1445.585938 2267.1875 M 1409.21875 2215.195312 L 1445.585938 2215.195312 M 1409.21875 2163.203125 L 1445.585938 2163.203125 M 1409.21875 2111.210938 L 1445.585938 2111.210938 M 1393.59375 2319.21875 L 1461.210938 2319.21875 M 1409.21875 2007.1875 L 1445.585938 2007.1875 M 1409.21875 1955.195312 L 1445.585938 1955.195312 M 1409.21875 1903.203125 L 1445.585938 1903.203125 M 1409.21875 1851.210938 L 1445.585938 1851.210938 M 1393.59375 2059.21875 L 1461.210938 2059.21875 M 1409.21875 1747.1875 L 1445.585938 1747.1875 M 1409.21875 1695.195312 L 1445.585938 1695.195312 M 1409.21875 1643.203125 L 1445.585938 1643.203125 M 1409.21875 1591.210938 L 1445.585938 1591.210938 M 1393.59375 1799.21875 L 1461.210938 1799.21875 M 1409.21875 1487.1875 L 1445.585938 1487.1875 M 1409.21875 1435.195312 L 1445.585938 1435.195312 M 1409.21875 1383.203125 L 1445.585938 1383.203125 M 1409.21875 1331.210938 L 1445.585938 1331.210938 M 1393.59375 1539.21875 L 1461.210938 1539.21875 M 1409.21875 1227.1875 L 1445.585938 1227.1875 M 1409.21875 1175.195312 L 1445.585938 1175.195312 M 1409.21875 1123.203125 L 1445.585938 1123.203125 M 1409.21875 1071.210938 L 1445.585938 1071.210938 M 1393.59375 1279.21875 L 1461.210938 1279.21875 M 1409.21875 967.1875 L 1445.585938 967.1875 M 1409.21875 915.195312 L 1445.585938 915.195312 M 1409.21875 863.203125 L 1445.585938 863.203125 M 1409.21875 811.210938 L 1445.585938 811.210938 M 1393.59375 1019.21875 L 1461.210938 1019.21875 M 1409.21875 707.1875 L 1445.585938 707.1875 M 1409.21875 655.195312 L 1445.585938 655.195312 M 1409.21875 603.203125 L 1445.585938 603.203125 M 1409.21875 551.210938 L 1445.585938 551.210938 M 1393.59375 759.179688 L 1461.210938 759.179688 M 1393.59375 499.179688 L 1461.210938 499.179688 M 384.804688 2319.21875 L 384.804688 488.789062 M 644.804688 2319.21875 L 644.804688 488.789062 M 904.804688 2319.21875 L 904.804688 488.789062 M 1164.804688 2319.21875 L 1164.804688 488.789062 M 1424.804688 2319.21875 L 1424.804688 488.789062 M 1684.804688 2319.21875 L 1684.804688 488.789062 M 1944.804688 2319.21875 L 1944.804688 488.789062 M 124.804688 2059.21875 L 2111.210938 2059.21875 M 124.804688 1799.21875 L 2111.210938 1799.21875 M 124.804688 1539.21875 L 2111.210938 1539.21875 M 124.804688 1279.21875 L 2111.210938 1279.21875 M 124.804688 1019.21875 L 2111.210938 1019.21875 M 124.804688 759.179688 L 2111.210938 759.179688 M 124.804688 499.179688 L 2111.210938 499.179688 " transform="matrix(0.1,0,0,-0.1,0,252)"/>
<path style="fill:none;stroke-width:5.2;stroke-linecap:butt;stroke-linejoin:miter;stroke:rgb(0%,0%,0%);stroke-opacity:1;stroke-miterlimit:10;" d="M 124.804688 233.984375 L 124.804688 488.789062 M 2730 488.789062 L 2730 233.984375 L 124.804688 233.984375 M 176.796875 233.984375 L 176.796875 249.609375 M 228.789062 233.984375 L 228.789062 249.609375 M 280.820312 233.984375 L 280.820312 249.609375 M 332.8125 233.984375 L 332.8125 249.609375 M 124.804688 233.984375 L 124.804688 270.390625 M 436.796875 233.984375 L 436.796875 249.609375 M 488.789062 233.984375 L 488.789062 249.609375 M 540.820312 233.984375 L 540.820312 249.609375 M 592.8125 233.984375 L 592.8125 249.609375 M 384.804688 233.984375 L 384.804688 270.390625 M 696.796875 233.984375 L 696.796875 249.609375 M 748.789062 233.984375 L 748.789062 249.609375 M 800.820312 233.984375 L 800.820312 249.609375 M 852.8125 233.984375 L 852.8125 249.609375 M 644.804688 233.984375 L 644.804688 270.390625 M 956.796875 233.984375 L 956.796875 249.609375 M 1008.789062 233.984375 L 1008.789062 249.609375 M 1060.78125 233.984375 L 1060.78125 249.609375 M 1112.8125 233.984375 L 1112.8125 249.609375 M 904.804688 233.984375 L 904.804688 270.390625 M 1216.796875 233.984375 L 1216.796875 249.609375 M 1268.789062 233.984375 L 1268.789062 249.609375 M 1320.78125 233.984375 L 1320.78125 249.609375 M 1372.8125 233.984375 L 1372.8125 249.609375 M 1164.804688 233.984375 L 1164.804688 270.390625 M 1476.796875 233.984375 L 1476.796875 249.609375 M 1528.789062 233.984375 L 1528.789062 249.609375 M 1580.78125 233.984375 L 1580.78125 249.609375 M 1632.8125 233.984375 L 1632.8125 249.609375 M 1424.804688 233.984375 L 1424.804688 270.390625 M 1736.796875 233.984375 L 1736.796875 249.609375 M 1788.789062 233.984375 L 1788.789062 249.609375 M 1840.78125 233.984375 L 1840.78125 249.609375 M 1892.8125 233.984375 L 1892.8125 249.609375 M 1684.804688 233.984375 L 1684.804688 270.390625 M 1996.796875 233.984375 L 1996.796875 249.609375 M 2048.789062 233.984375 L 2048.789062 249.609375 M 2100.78125 233.984375 L 2100.78125 249.609375 M 2152.8125 233.984375 L 2152.8125 249.609375 M 1944.804688 233.984375 L 1944.804688 270.390625 M 2256.796875 233.984375 L 2256.796875 249.609375 M 2308.789062 233.984375 L 2308.789062 249.609375 M 2360.78125 233.984375 L 2360.78125 249.609375 M 2412.8125 233.984375 L 2412.8125 249.609375 M 2204.804688 233.984375 L 2204.804688 270.390625 M 2516.796875 233.984375 L 2516.796875 249.609375 M 2568.789062 233.984375 L 2568.789062 249.609375 M 2620.78125 233.984375 L 2620.78125 249.609375 M 2672.8125 233.984375 L 2672.8125 249.609375 M 2464.804688 233.984375 L 2464.804688 270.390625 M 124.804688 447.1875 L 140.390625 447.1875 M 124.804688 395.195312 L 140.390625 395.195312 M 124.804688 343.203125 L 140.390625 343.203125 M 124.804688 291.210938 L 140.390625 291.210938 M 2730 447.1875 L 2714.414062 447.1875 M 2730 395.195312 L 2714.414062 395.195312 M 2730 343.203125 L 2714.414062 343.203125 M 2730 291.210938 L 2714.414062 291.210938 M 1424.804688 488.789062 L 1424.804688 233.984375 M 1409.21875 447.1875 L 1445.585938 447.1875 M 1409.21875 395.195312 L 1445.585938 395.195312 M 1409.21875 343.203125 L 1445.585938 343.203125 M 1409.21875 291.210938 L 1445.585938 291.210938 M 384.804688 488.789062 L 384.804688 233.984375 M 644.804688 488.789062 L 644.804688 233.984375 M 904.804688 488.789062 L 904.804688 233.984375 M 1164.804688 488.789062 L 1164.804688 233.984375 M 1424.804688 488.789062 L 1424.804688 233.984375 M 1684.804688 488.789062 L 1684.804688 233.984375 M 1944.804688 488.789062 L 1944.804688 233.984375 M 2204.804688 488.789062 L 2204.804688 233.984375 M 2464.804688 488.789062 L 2464.804688 233.984375 " transform="matrix(0.1,0,0,-0.1,0,252)"/>
<path style="fill:none;stroke-width:5.2;stroke-linecap:butt;stroke-linejoin:miter;stroke:rgb(0%,0%,0%);stroke-opacity:1;stroke-miterlimit:10;" d="M 2111.210938 2319.21875 L 2730 2319.21875 L 2730 488.789062 M 2152.8125 2319.21875 L 2152.8125 2303.59375 M 2256.796875 2319.21875 L 2256.796875 2303.59375 M 2308.789062 2319.21875 L 2308.789062 2303.59375 M 2360.78125 2319.21875 L 2360.78125 2303.59375 M 2412.8125 2319.21875 L 2412.8125 2303.59375 M 2204.804688 2319.21875 L 2204.804688 2282.8125 M 2516.796875 2319.21875 L 2516.796875 2303.59375 M 2568.789062 2319.21875 L 2568.789062 2303.59375 M 2620.78125 2319.21875 L 2620.78125 2303.59375 M 2672.8125 2319.21875 L 2672.8125 2303.59375 M 2464.804688 2319.21875 L 2464.804688 2282.8125 M 2730 2267.1875 L 2714.414062 2267.1875 M 2730 2215.195312 L 2714.414062 2215.195312 M 2730 2163.203125 L 2714.414062 2163.203125 M 2730 2111.210938 L 2714.414062 2111.210938 M 2730 2319.21875 L 2693.59375 2319.21875 M 2730 2007.1875 L 2714.414062 2007.1875 M 2730 1955.195312 L 2714.414062 1955.195312 M 2730 1903.203125 L 2714.414062 1903.203125 M 2730 1851.210938 L 2714.414062 1851.210938 M 2730 2059.21875 L 2693.59375 2059.21875 M 2730 1747.1875 L 2714.414062 1747.1875 M 2730 1695.195312 L 2714.414062 1695.195312 M 2730 1643.203125 L 2714.414062 1643.203125 M 2730 1591.210938 L 2714.414062 1591.210938 M 2730 1799.21875 L 2693.59375 1799.21875 M 2730 1487.1875 L 2714.414062 1487.1875 M 2730 1435.195312 L 2714.414062 1435.195312 M 2730 1383.203125 L 2714.414062 1383.203125 M 2730 1331.210938 L 2714.414062 1331.210938 M 2730 1539.21875 L 2693.59375 1539.21875 M 2730 1227.1875 L 2714.414062 1227.1875 M 2730 1175.195312 L 2714.414062 1175.195312 M 2730 1123.203125 L 2714.414062 1123.203125 M 2730 1071.210938 L 2714.414062 1071.210938 M 2730 1279.21875 L 2693.59375 1279.21875 M 2730 967.1875 L 2714.414062 967.1875 M 2730 915.195312 L 2714.414062 915.195312 M 2730 863.203125 L 2714.414062 863.203125 M 2730 811.210938 L 2714.414062 811.210938 M 2730 1019.21875 L 2693.59375 1019.21875 M 2730 707.1875 L 2714.414062 707.1875 M 2730 655.195312 L 2714.414062 655.195312 M 2730 603.203125 L 2714.414062 603.203125 M 2730 551.210938 L 2714.414062 551.210938 M 2730 759.179688 L 2693.59375 759.179688 M 2730 499.179688 L 2693.59375 499.179688 M 2111.210938 1279.21875 L 2730 1279.21875 M 2152.8125 1294.804688 L 2152.8125 1258.398438 M 2256.796875 1294.804688 L 2256.796875 1258.398438 M 2308.789062 1294.804688 L 2308.789062 1258.398438 M 2360.78125 1294.804688 L 2360.78125 1258.398438 M 2412.8125 1294.804688 L 2412.8125 1258.398438 M 2204.804688 1310.390625 L 2204.804688 1242.8125 M 2516.796875 1294.804688 L 2516.796875 1258.398438 M 2568.789062 1294.804688 L 2568.789062 1258.398438 M 2620.78125 1294.804688 L 2620.78125 1258.398438 M 2672.8125 1294.804688 L 2672.8125 1258.398438 M 2464.804688 1310.390625 L 2464.804688 1242.8125 M 2204.804688 2319.21875 L 2204.804688 488.789062 M 2464.804688 2319.21875 L 2464.804688 488.789062 M 2111.210938 2059.21875 L 2730 2059.21875 M 2111.210938 1799.21875 L 2730 1799.21875 M 2111.210938 1539.21875 L 2730 1539.21875 M 2111.210938 1279.21875 L 2730 1279.21875 M 2111.210938 1019.21875 L 2730 1019.21875 M 2111.210938 759.179688 L 2730 759.179688 M 2111.210938 499.179688 L 2730 499.179688 " transform="matrix(0.1,0,0,-0.1,0,252)"/>
<path style="fill:none;stroke-width:5.2;stroke-linecap:butt;stroke-linejoin:miter;stroke:rgb(0%,0%,0%);stroke-opacity:1;stroke-miterlimit:10;" d="M 20.820312 2428.398438 L 20.820312 2485.585938 M 0 2485.585938 L 41.601562 2485.585938 M 88.398438 2485.585938 L 57.1875 2485.585938 L 57.1875 2428.398438 L 88.398438 2428.398438 M 57.1875 2459.609375 L 83.203125 2459.609375 M 103.984375 2485.585938 L 103.984375 2428.398438 M 140.390625 2485.585938 L 103.984375 2459.609375 L 145.585938 2428.398438 " transform="matrix(0.1,0,0,-0.1,0,252)"/>
<path style="fill:none;stroke-width:5.2;stroke-linecap:butt;stroke-linejoin:miter;stroke:rgb(0%,0%,0%);stroke-opacity:1;stroke-miterlimit:10;" d="M 192.382812 2428.398438 L 192.382812 2480.390625 L 218.398438 2480.390625 L 223.59375 2475.195312 L 223.59375 2464.804688 L 213.203125 2454.414062 L 192.382812 2454.414062 M 213.203125 2454.414062 L 228.789062 2428.398438 M 244.414062 2470 L 244.414062 2433.59375 L 249.609375 2428.398438 L 254.804688 2428.398438 L 280.820312 2443.984375 M 280.820312 2470 L 280.820312 2428.398438 M 301.601562 2470 L 301.601562 2428.398438 M 301.601562 2454.414062 L 322.382812 2470 L 332.8125 2470 L 338.007812 2464.804688 L 338.007812 2428.398438 M 358.789062 2470 L 358.789062 2428.398438 M 358.789062 2454.414062 L 379.609375 2470 L 390 2470 L 395.195312 2464.804688 L 395.195312 2428.398438 M 421.210938 2485.585938 L 421.210938 2480.390625 M 421.210938 2464.804688 L 421.210938 2428.398438 M 441.992188 2470 L 441.992188 2428.398438 M 441.992188 2454.414062 L 462.8125 2470 L 473.203125 2470 L 478.398438 2464.804688 L 478.398438 2428.398438 M 530.390625 2443.984375 L 514.804688 2433.59375 L 504.414062 2433.59375 L 493.984375 2443.984375 L 493.984375 2459.609375 L 504.414062 2470 L 530.390625 2470 L 530.390625 2418.007812 L 525.195312 2412.8125 L 499.179688 2412.8125 L 493.984375 2418.007812 M 556.40625 2470 L 556.40625 2464.804688 M 556.40625 2433.59375 L 556.40625 2428.398438 " transform="matrix(0.1,0,0,-0.1,0,252)"/>
<path style="fill:none;stroke-width:5.2;stroke-linecap:butt;stroke-linejoin:miter;stroke:rgb(0%,0%,0%);stroke-opacity:1;stroke-miterlimit:10;" d="M 608.398438 2428.398438 L 608.398438 2480.390625 L 650 2428.398438 L 650 2480.390625 M 670.820312 2459.609375 L 681.210938 2470 L 696.796875 2470 L 707.1875 2459.609375 L 707.1875 2438.789062 L 696.796875 2428.398438 L 681.210938 2428.398438 L 670.820312 2438.789062 L 670.820312 2459.609375 M 728.007812 2470 L 728.007812 2428.398438 M 728.007812 2454.414062 L 748.789062 2470 M 764.414062 2470 L 764.414062 2428.398438 M 764.414062 2454.414062 L 785.195312 2470 L 790.390625 2470 L 790.390625 2428.398438 M 790.390625 2454.414062 L 811.210938 2470 L 816.40625 2470 L 821.601562 2464.804688 L 821.601562 2428.398438 M 863.203125 2449.21875 L 842.382812 2449.21875 L 837.1875 2443.984375 L 837.1875 2433.59375 L 842.382812 2428.398438 L 852.8125 2428.398438 L 863.203125 2433.59375 M 837.1875 2464.804688 L 842.382812 2470 L 858.007812 2470 L 863.203125 2464.804688 L 863.203125 2428.398438 L 868.398438 2428.398438 M 889.179688 2485.585938 L 889.179688 2428.398438 " transform="matrix(0.1,0,0,-0.1,0,252)"/>
<path style="fill:none;stroke-width:5.2;stroke-linecap:butt;stroke-linejoin:miter;stroke:rgb(0%,0%,0%);stroke-opacity:1;stroke-miterlimit:10;" d="M 2802.8125 1944.804688 L 2808.007812 1950 L 2828.789062 1950 L 2833.984375 1944.804688 L 2833.984375 1929.21875 L 2802.8125 1903.203125 L 2802.8125 1898.007812 L 2833.984375 1898.007812 M 2886.015625 1950 L 2854.804688 1950 L 2854.804688 1929.21875 L 2875.585938 1929.21875 L 2886.015625 1918.789062 L 2886.015625 1903.203125 L 2880.78125 1898.007812 L 2860 1898.007812 L 2854.804688 1903.203125 M 2911.992188 1903.203125 L 2911.992188 1898.007812 M 2958.789062 1950 L 2958.789062 1898.007812 M 2943.203125 1944.804688 L 2958.789062 1944.804688 M 2990 1950 L 3021.210938 1950 L 3021.210938 1939.609375 L 2995.195312 1908.398438 L 2995.195312 1898.007812 M 3041.992188 1903.203125 L 3047.1875 1898.007812 L 3062.8125 1898.007812 L 3073.203125 1908.398438 L 3073.203125 1939.609375 L 3062.8125 1950 L 3052.382812 1950 L 3041.992188 1939.609375 L 3041.992188 1923.984375 L 3052.382812 1913.59375 L 3057.617188 1913.59375 L 3073.203125 1923.984375 M 3093.984375 1898.007812 L 3093.984375 1950 L 3120 1903.203125 L 3146.015625 1950 L 3146.015625 1898.007812 M 3171.992188 1950 L 3171.992188 1898.007812 M 3213.59375 1950 L 3213.59375 1898.007812 M 3171.992188 1923.984375 L 3213.59375 1923.984375 M 3234.414062 1939.609375 L 3260.390625 1939.609375 L 3260.390625 1929.21875 L 3234.414062 1908.398438 L 3234.414062 1898.007812 L 3260.390625 1898.007812 " transform="matrix(0.1,0,0,-0.1,0,252)"/>
<path style="fill:none;stroke-width:5.2;stroke-linecap:butt;stroke-linejoin:miter;stroke:rgb(0%,0%,0%);stroke-opacity:1;stroke-miterlimit:10;" d="M 2896.40625 2022.8125 L 2891.210938 2028.007812 L 2870.390625 2028.007812 L 2860 2022.8125 L 2854.804688 2012.382812 L 2854.804688 1991.601562 L 2860 1981.210938 L 2870.390625 1976.015625 L 2891.210938 1976.015625 L 2896.40625 1981.210938 M 2911.992188 2033.203125 L 2911.992188 1976.015625 M 2911.992188 2001.992188 L 2932.8125 2017.617188 L 2943.203125 2017.617188 L 2948.398438 2012.382812 L 2948.398438 1976.015625 M 2990 2028.007812 L 2990 1976.015625 M 2974.414062 2022.8125 L 2990 2022.8125 M 3073.203125 2028.007812 L 3047.1875 2028.007812 L 3047.1875 1976.015625 M 3068.007812 2001.992188 L 3047.1875 2001.992188 M 3093.984375 2017.617188 L 3093.984375 1976.015625 M 3093.984375 2001.992188 L 3114.804688 2017.617188 M 3125.195312 1996.796875 L 3156.40625 1996.796875 L 3156.40625 2012.382812 L 3151.210938 2017.617188 L 3135.585938 2017.617188 L 3125.195312 2007.1875 L 3125.195312 1986.40625 L 3135.585938 1976.015625 L 3151.210938 1976.015625 L 3156.40625 1981.210938 M 3208.398438 1986.40625 L 3192.8125 1976.015625 L 3182.382812 1976.015625 L 3171.992188 1986.40625 L 3171.992188 2007.1875 L 3182.382812 2017.617188 L 3208.398438 2017.617188 L 3208.398438 1960.390625 " transform="matrix(0.1,0,0,-0.1,0,252)"/>
<path style="fill:none;stroke-width:5.2;stroke-linecap:butt;stroke-linejoin:miter;stroke:rgb(0%,0%,0%);stroke-opacity:1;stroke-miterlimit:10;" d="M 192.382812 213.203125 L 187.1875 218.398438 L 166.40625 218.398438 L 156.015625 213.203125 L 150.820312 202.8125 L 150.820312 181.992188 L 156.015625 171.601562 L 166.40625 166.40625 L 187.1875 166.40625 L 192.382812 171.601562 M 208.007812 223.59375 L 208.007812 166.40625 M 208.007812 192.382812 L 228.789062 208.007812 L 239.179688 208.007812 L 244.414062 202.8125 L 244.414062 166.40625 M 286.015625 218.398438 L 286.015625 166.40625 M 270.390625 213.203125 L 286.015625 213.203125 " transform="matrix(0.1,0,0,-0.1,0,252)"/>
<path style="fill:none;stroke-width:5.2;stroke-linecap:butt;stroke-linejoin:miter;stroke:rgb(0%,0%,0%);stroke-opacity:1;stroke-miterlimit:10;" d="M 400.390625 218.398438 L 369.179688 218.398438 L 369.179688 197.617188 L 390 197.617188 L 400.390625 187.1875 L 400.390625 171.601562 L 395.195312 166.40625 L 374.414062 166.40625 L 369.179688 171.601562 M 431.601562 218.398438 L 421.210938 208.007812 L 421.210938 176.796875 L 431.601562 166.40625 L 441.992188 166.40625 L 452.382812 176.796875 L 452.382812 208.007812 L 441.992188 218.398438 L 431.601562 218.398438 M 483.59375 218.398438 L 473.203125 208.007812 L 473.203125 176.796875 L 483.59375 166.40625 L 493.984375 166.40625 L 504.414062 176.796875 L 504.414062 208.007812 L 493.984375 218.398438 L 483.59375 218.398438 M 525.195312 208.007812 L 525.195312 166.40625 M 525.195312 192.382812 L 546.015625 208.007812 L 551.210938 208.007812 L 551.210938 166.40625 M 551.210938 192.382812 L 571.992188 208.007812 L 577.1875 208.007812 L 582.382812 202.8125 L 582.382812 166.40625 M 598.007812 218.398438 L 618.789062 166.40625 L 639.609375 218.398438 " transform="matrix(0.1,0,0,-0.1,0,252)"/>
<path style="fill:none;stroke-width:5.2;stroke-linecap:butt;stroke-linejoin:miter;stroke:rgb(0%,0%,0%);stroke-opacity:1;stroke-miterlimit:10;" d="M 1357.1875 213.203125 L 1362.382812 218.398438 L 1383.203125 218.398438 L 1388.398438 213.203125 L 1388.398438 197.617188 L 1357.1875 171.601562 L 1357.1875 166.40625 L 1388.398438 166.40625 M 1419.609375 218.398438 L 1409.21875 208.007812 L 1409.21875 176.796875 L 1419.609375 166.40625 L 1430 166.40625 L 1440.390625 176.796875 L 1440.390625 208.007812 L 1430 218.398438 L 1419.609375 218.398438 M 1466.40625 171.601562 L 1466.40625 166.40625 M 1502.8125 218.398438 L 1492.382812 208.007812 L 1492.382812 176.796875 L 1502.8125 166.40625 L 1513.203125 166.40625 L 1523.59375 176.796875 L 1523.59375 208.007812 L 1513.203125 218.398438 L 1502.8125 218.398438 M 1544.414062 208.007812 L 1544.414062 166.40625 M 1544.414062 192.382812 L 1565.195312 208.007812 L 1575.585938 208.007812 L 1580.78125 202.8125 L 1580.78125 166.40625 M 1622.382812 202.8125 L 1617.1875 208.007812 L 1601.601562 208.007812 L 1596.40625 202.8125 L 1596.40625 192.382812 L 1622.382812 181.992188 L 1622.382812 171.601562 L 1617.1875 166.40625 L 1601.601562 166.40625 L 1596.40625 171.601562 " transform="matrix(0.1,0,0,-0.1,0,252)"/>
<path style="fill:none;stroke-width:5.2;stroke-linecap:butt;stroke-linejoin:miter;stroke:rgb(0%,0%,0%);stroke-opacity:1;stroke-miterlimit:10;" d="M 1253.203125 166.40625 L 1253.203125 218.398438 L 1279.21875 171.601562 L 1305.195312 218.398438 L 1305.195312 166.40625 " transform="matrix(0.1,0,0,-0.1,0,252)"/>
<path style="fill:none;stroke-width:5.2;stroke-linecap:butt;stroke-linejoin:miter;stroke:rgb(0%,0%,0%);stroke-opacity:1;stroke-miterlimit:10;" d="M 1669.21875 218.398438 L 1638.007812 166.40625 M 1721.210938 176.796875 L 1705.585938 166.40625 L 1695.195312 166.40625 L 1684.804688 176.796875 L 1684.804688 197.617188 L 1695.195312 208.007812 L 1721.210938 208.007812 M 1721.210938 223.59375 L 1721.210938 166.40625 " transform="matrix(0.1,0,0,-0.1,0,252)"/>
<path style="fill:none;stroke-width:5.2;stroke-linecap:butt;stroke-linejoin:miter;stroke:rgb(0%,0%,0%);stroke-opacity:1;stroke-miterlimit:10;" d="M 1908.398438 213.203125 L 1913.59375 218.398438 L 1934.414062 218.398438 L 1939.609375 213.203125 L 1939.609375 202.8125 L 1929.21875 192.382812 L 1918.789062 192.382812 L 1929.21875 192.382812 L 1939.609375 181.992188 L 1939.609375 171.601562 L 1934.414062 166.40625 L 1913.59375 166.40625 L 1908.398438 171.601562 M 1965.585938 171.601562 L 1965.585938 166.40625 M 2001.992188 218.398438 L 1991.601562 208.007812 L 1991.601562 176.796875 L 2001.992188 166.40625 L 2012.382812 166.40625 L 2022.8125 176.796875 L 2022.8125 208.007812 L 2012.382812 218.398438 L 2001.992188 218.398438 M 2053.984375 218.398438 L 2043.59375 208.007812 L 2043.59375 176.796875 L 2053.984375 166.40625 L 2064.414062 166.40625 L 2074.804688 176.796875 L 2074.804688 208.007812 L 2064.414062 218.398438 L 2053.984375 218.398438 M 2106.015625 218.398438 L 2095.585938 208.007812 L 2095.585938 176.796875 L 2106.015625 166.40625 L 2116.40625 166.40625 L 2126.796875 176.796875 L 2126.796875 208.007812 L 2116.40625 218.398438 L 2106.015625 218.398438 M 2147.617188 208.007812 L 2147.617188 166.40625 M 2147.617188 192.382812 L 2168.398438 208.007812 L 2178.789062 208.007812 L 2183.984375 202.8125 L 2183.984375 166.40625 M 2225.585938 202.8125 L 2220.390625 208.007812 L 2204.804688 208.007812 L 2199.609375 202.8125 L 2199.609375 192.382812 L 2225.585938 181.992188 L 2225.585938 171.601562 L 2220.390625 166.40625 L 2204.804688 166.40625 L 2199.609375 171.601562 " transform="matrix(0.1,0,0,-0.1,0,252)"/>
<path style="fill:none;stroke-width:5.2;stroke-linecap:butt;stroke-linejoin:miter;stroke:rgb(0%,0%,0%);stroke-opacity:1;stroke-miterlimit:10;" d="M 2584.414062 88.398438 L 2605.195312 88.398438 L 2620.78125 140.390625 L 2641.601562 140.390625 " transform="matrix(0.1,0,0,-0.1,0,252)"/>
<path style="fill:none;stroke-width:5.2;stroke-linecap:butt;stroke-linejoin:miter;stroke:rgb(0%,0%,0%);stroke-opacity:1;stroke-miterlimit:10;" d="M 2454.414062 181.992188 L 2418.007812 181.992188 L 2418.007812 192.382812 L 2449.21875 218.398438 L 2449.21875 166.40625 M 2485.585938 218.398438 L 2475.195312 208.007812 L 2475.195312 176.796875 L 2485.585938 166.40625 L 2496.015625 166.40625 L 2506.40625 176.796875 L 2506.40625 208.007812 L 2496.015625 218.398438 L 2485.585938 218.398438 M 2537.617188 218.398438 L 2527.1875 208.007812 L 2527.1875 176.796875 L 2537.617188 166.40625 L 2548.007812 166.40625 L 2558.398438 176.796875 L 2558.398438 208.007812 L 2548.007812 218.398438 L 2537.617188 218.398438 M 2579.21875 208.007812 L 2579.21875 166.40625 M 2579.21875 192.382812 L 2600 208.007812 L 2605.195312 208.007812 L 2605.195312 166.40625 M 2605.195312 192.382812 L 2626.015625 208.007812 L 2631.210938 208.007812 L 2636.40625 202.8125 L 2636.40625 166.40625 M 2651.992188 218.398438 L 2672.8125 166.40625 L 2693.59375 218.398438 " transform="matrix(0.1,0,0,-0.1,0,252)"/>
<path style="fill:none;stroke-width:5.2;stroke-linecap:butt;stroke-linejoin:miter;stroke:rgb(0%,0%,0%);stroke-opacity:1;stroke-miterlimit:10;" d="M 826.796875 2412.8125 L 826.796875 2329.609375 M 826.796875 2371.210938 L 2131.992188 2371.210938 M 2131.992188 2412.8125 L 2131.992188 2329.609375 " transform="matrix(0.1,0,0,-0.1,0,252)"/>
<path style="fill:none;stroke-width:5.2;stroke-linecap:butt;stroke-linejoin:miter;stroke:rgb(0%,0%,0%);stroke-opacity:1;stroke-miterlimit:10;" d="M 2693.59375 1273.984375 L 2693.59375 1248.007812 L 2667.617188 1273.984375 L 2693.59375 1300 L 2693.59375 1273.984375 L 2719.609375 1273.984375 " transform="matrix(0.1,0,0,-0.1,0,252)"/>
<path style="fill:none;stroke-width:5.2;stroke-linecap:butt;stroke-linejoin:miter;stroke:rgb(0%,0%,0%);stroke-opacity:1;stroke-miterlimit:10;" d="M 46.796875 1086.796875 L 46.796875 1034.804688 M 31.210938 1081.601562 L 46.796875 1081.601562 M 98.789062 1060.78125 L 98.789062 1045.195312 L 114.414062 1060.78125 L 98.789062 1076.40625 L 98.789062 1060.78125 L 72.8125 1060.78125 " transform="matrix(0.1,0,0,-0.1,0,252)"/>
<path style="fill:none;stroke-width:5.2;stroke-linecap:butt;stroke-linejoin:miter;stroke:rgb(0%,0%,0%);stroke-opacity:1;stroke-miterlimit:10;" d="M 806.015625 2391.992188 L 847.617188 2391.992188 M 826.796875 2391.992188 L 826.796875 2340 " transform="matrix(0.1,0,0,-0.1,0,252)"/>
<path style="fill:none;stroke-width:5.2;stroke-linecap:butt;stroke-linejoin:miter;stroke:rgb(0%,0%,0%);stroke-opacity:1;stroke-miterlimit:10;" d="M 785.195312 2397.1875 L 769.609375 2397.1875 L 769.609375 2329.609375 L 785.195312 2329.609375 " transform="matrix(0.1,0,0,-0.1,0,252)"/>
<path style="fill:none;stroke-width:5.2;stroke-linecap:butt;stroke-linejoin:miter;stroke:rgb(0%,0%,0%);stroke-opacity:1;stroke-miterlimit:10;" d="M 2064.414062 2397.1875 L 2080 2397.1875 L 2080 2329.609375 L 2064.414062 2329.609375 " transform="matrix(0.1,0,0,-0.1,0,252)"/>
</g>
</svg>
