<?xml version="1.0" encoding="UTF-8"?>
<svg xmlns="http://www.w3.org/2000/svg" xmlns:xlink="http://www.w3.org/1999/xlink" width="336pt" height="252pt" viewBox="0 0 336 252" version="1.1">
<g id="surface1">
<path style="fill:none;stroke-width:5.2;stroke-linecap:butt;stroke-linejoin:miter;stroke:rgb(0%,3.999329%,100%);stroke-opacity:1;stroke-miterlimit:10;" d="M 166.40625 1237.617188 L 171.601562 1248.007812 L 176.796875 1242.8125 L 213.203125 1242.8125 L 218.398438 1248.007812 L 223.59375 1248.007812 L 233.984375 1237.617188 L 239.179688 1242.8125 L 265.195312 1242.8125 L 270.390625 1248.007812 L 275.585938 1248.007812 L 280.820312 1242.8125 L 296.40625 1242.8125 L 301.601562 1248.007812 L 306.796875 1242.8125 L 311.992188 1248.007812 L 317.1875 1242.8125 L 332.8125 1242.8125 L 338.007812 1248.007812 L 343.203125 1242.8125 L 348.398438 1242.8125 L 353.59375 1248.007812 L 358.789062 1242.8125 L 369.179688 1242.8125 L 374.414062 1248.007812 L 379.609375 1242.8125 L 436.796875 1242.8125 L 441.992188 1248.007812 L 447.1875 1242.8125 L 504.414062 1242.8125 L 509.609375 1248.007812 L 514.804688 1242.8125 L 525.195312 1242.8125 L 530.390625 1248.007812 L 540.820312 1248.007812 L 546.015625 1242.8125 L 551.210938 1242.8125 L 556.40625 1248.007812 L 561.601562 1242.8125 L 592.8125 1242.8125 L 598.007812 1248.007812 L 603.203125 1242.8125 L 608.398438 1248.007812 L 613.59375 1242.8125 L 634.414062 1242.8125 L 639.609375 1248.007812 " transform="matrix(0.1,0,0,-0.1,0,252)"/>
<path style="fill:none;stroke-width:5.2;stroke-linecap:butt;stroke-linejoin:miter;stroke:rgb(0%,3.999329%,100%);stroke-opacity:1;stroke-miterlimit:10;" d="M 639.609375 1248.007812 L 644.804688 1242.8125 L 665.585938 1242.8125 L 670.820312 1248.007812 L 676.015625 1242.8125 L 717.617188 1242.8125 L 722.8125 1248.007812 L 728.007812 1242.8125 L 733.203125 1242.8125 L 738.398438 1248.007812 L 753.984375 1248.007812 L 759.179688 1237.617188 L 764.414062 1242.8125 L 811.210938 1242.8125 L 816.40625 1248.007812 L 821.601562 1237.617188 L 826.796875 1248.007812 L 831.992188 1242.8125 L 868.398438 1242.8125 L 873.59375 1248.007812 L 878.789062 1248.007812 L 883.984375 1242.8125 L 904.804688 1242.8125 L 910 1248.007812 L 915.195312 1242.8125 L 1003.59375 1242.8125 L 1008.789062 1248.007812 L 1013.984375 1242.8125 L 1019.21875 1242.8125 L 1024.414062 1248.007812 L 1029.609375 1242.8125 L 1081.601562 1242.8125 L 1086.796875 1248.007812 L 1091.992188 1242.8125 L 1133.59375 1242.8125 L 1138.789062 1248.007812 L 1143.984375 1242.8125 L 1149.21875 1248.007812 L 1154.414062 1242.8125 L 1159.609375 1242.8125 " transform="matrix(0.1,0,0,-0.1,0,252)"/>
<path style="fill:none;stroke-width:5.2;stroke-linecap:butt;stroke-linejoin:miter;stroke:rgb(0%,3.999329%,100%);stroke-opacity:1;stroke-miterlimit:10;" d="M 1159.609375 1242.8125 L 1190.78125 1242.8125 L 1196.015625 1248.007812 L 1206.40625 1237.617188 L 1211.601562 1237.617188 L 1216.796875 1248.007812 L 1221.992188 1237.617188 L 1227.1875 1242.8125 L 1237.617188 1242.8125 L 1242.8125 1248.007812 L 1248.007812 1242.8125 L 1294.804688 1242.8125 L 1300 1248.007812 L 1305.195312 1248.007812 L 1310.390625 1242.8125 L 1320.78125 1242.8125 L 1326.015625 1237.617188 L 1331.210938 1248.007812 L 1336.40625 1242.8125 L 1351.992188 1242.8125 L 1357.1875 1248.007812 L 1362.382812 1242.8125 L 1393.59375 1242.8125 L 1398.789062 1248.007812 L 1403.984375 1242.8125 L 1414.414062 1242.8125 L 1419.609375 1248.007812 L 1424.804688 1248.007812 L 1430 1242.8125 L 1440.390625 1242.8125 L 1445.585938 1248.007812 L 1450.78125 1242.8125 L 1492.382812 1242.8125 L 1497.617188 1248.007812 L 1502.8125 1248.007812 L 1508.007812 1242.8125 L 1513.203125 1242.8125 L 1518.398438 1248.007812 L 1523.59375 1242.8125 L 1575.585938 1242.8125 L 1580.78125 1237.617188 L 1586.015625 1248.007812 L 1591.210938 1242.8125 L 1627.617188 1242.8125 L 1632.8125 1248.007812 L 1638.007812 1237.617188 L 1643.203125 1237.617188 L 1648.398438 1242.8125 L 1653.59375 1242.8125 L 1658.789062 1248.007812 L 1663.984375 1248.007812 L 1669.21875 1242.8125 L 1679.609375 1242.8125 " transform="matrix(0.1,0,0,-0.1,0,252)"/>
<path style="fill:none;stroke-width:5.2;stroke-linecap:butt;stroke-linejoin:miter;stroke:rgb(0%,3.999329%,100%);stroke-opacity:1;stroke-miterlimit:10;" d="M 1679.609375 1242.8125 L 1684.804688 1242.8125 L 1690 1248.007812 L 1695.195312 1242.8125 L 1705.585938 1242.8125 L 1710.78125 1248.007812 L 1716.015625 1242.8125 L 1747.1875 1242.8125 L 1752.382812 1248.007812 L 1757.617188 1248.007812 L 1762.8125 1242.8125 L 1768.007812 1242.8125 L 1773.203125 1248.007812 L 1778.398438 1242.8125 L 1788.789062 1242.8125 L 1793.984375 1248.007812 L 1799.21875 1242.8125 L 1825.195312 1242.8125 L 1830.390625 1248.007812 L 1835.585938 1242.8125 L 1846.015625 1242.8125 L 1851.210938 1248.007812 L 1856.40625 1242.8125 L 1861.601562 1248.007812 L 1866.796875 1242.8125 L 1882.382812 1242.8125 L 1887.617188 1248.007812 L 1892.8125 1242.8125 L 1913.59375 1242.8125 L 1918.789062 1237.617188 L 1923.984375 1242.8125 L 1955.195312 1242.8125 L 1960.390625 1248.007812 L 1965.585938 1248.007812 L 1970.78125 1242.8125 L 1996.796875 1242.8125 L 2001.992188 1248.007812 L 2007.1875 1242.8125 L 2043.59375 1242.8125 L 2048.789062 1237.617188 L 2053.984375 1242.8125 L 2064.414062 1242.8125 L 2069.609375 1248.007812 L 2074.804688 1248.007812 L 2080 1242.8125 L 2090.390625 1242.8125 L 2095.585938 1248.007812 L 2100.78125 1248.007812 L 2106.015625 1242.8125 L 2121.601562 1242.8125 L 2126.796875 1237.617188 L 2137.1875 1248.007812 L 2142.382812 1242.8125 L 2147.617188 1248.007812 L 2152.8125 1242.8125 L 2158.007812 1242.8125 L 2163.203125 1248.007812 L 2168.398438 1242.8125 L 2173.59375 1248.007812 L 2178.789062 1242.8125 L 2189.21875 1242.8125 L 2194.414062 1248.007812 L 2199.609375 1242.8125 " transform="matrix(0.1,0,0,-0.1,0,252)"/>
<path style="fill:none;stroke-width:5.2;stroke-linecap:butt;stroke-linejoin:miter;stroke:rgb(0%,3.999329%,100%);stroke-opacity:1;stroke-miterlimit:10;" d="M 2199.609375 1242.8125 L 2230.78125 1242.8125 L 2236.015625 1248.007812 L 2241.210938 1242.8125 L 2246.40625 1248.007812 L 2251.601562 1242.8125 L 2329.609375 1242.8125 L 2334.804688 1248.007812 L 2345.195312 1248.007812 L 2350.390625 1242.8125 L 2371.210938 1242.8125 L 2376.40625 1248.007812 L 2381.601562 1242.8125 L 2386.796875 1248.007812 L 2391.992188 1242.8125 L 2412.8125 1242.8125 L 2418.007812 1237.617188 L 2423.203125 1248.007812 L 2428.398438 1242.8125 L 2449.21875 1242.8125 L 2454.414062 1248.007812 L 2459.609375 1242.8125 L 2464.804688 1242.8125 L 2470 1248.007812 L 2475.195312 1242.8125 L 2480.390625 1242.8125 L 2485.585938 1248.007812 L 2490.78125 1242.8125 L 2563.59375 1242.8125 L 2568.789062 1248.007812 L 2573.984375 1248.007812 L 2579.21875 1242.8125 L 2615.585938 1242.8125 L 2620.78125 1248.007812 L 2626.015625 1242.8125 L 2636.40625 1242.8125 L 2641.601562 1248.007812 L 2646.796875 1242.8125 L 2667.617188 1242.8125 L 2672.8125 1248.007812 L 2678.007812 1242.8125 L 2683.203125 1248.007812 L 2688.398438 1242.8125 L 2703.984375 1242.8125 L 2709.21875 1248.007812 L 2714.414062 1248.007812 L 2719.609375 1242.8125 " transform="matrix(0.1,0,0,-0.1,0,252)"/>
<path style="fill:none;stroke-width:5.2;stroke-linecap:butt;stroke-linejoin:miter;stroke:rgb(0%,0%,0%);stroke-opacity:1;stroke-miterlimit:10;" d="M 124.804688 488.789062 L 124.804688 2319.21875 L 2111.210938 2319.21875 M 176.796875 2319.21875 L 176.796875 2303.59375 M 228.789062 2319.21875 L 228.789062 2303.59375 M 280.820312 2319.21875 L 280.820312 2303.59375 M 332.8125 2319.21875 L 332.8125 2303.59375 M 124.804688 2319.21875 L 124.804688 2282.8125 M 436.796875 2319.21875 L 436.796875 2303.59375 M 488.789062 2319.21875 L 488.789062 2303.59375 M 540.820312 2319.21875 L 540.820312 2303.59375 M 592.8125 2319.21875 L 592.8125 2303.59375 M 384.804688 2319.21875 L 384.804688 2282.8125 M 696.796875 2319.21875 L 696.796875 2303.59375 M 748.789062 2319.21875 L 748.789062 2303.59375 M 800.820312 2319.21875 L 800.820312 2303.59375 M 852.8125 2319.21875 L 852.8125 2303.59375 M 644.804688 2319.21875 L 644.804688 2282.8125 M 956.796875 2319.21875 L 956.796875 2303.59375 M 1008.789062 2319.21875 L 1008.789062 2303.59375 M 1060.78125 2319.21875 L 1060.78125 2303.59375 M 1112.8125 2319.21875 L 1112.8125 2303.59375 M 904.804688 2319.21875 L 904.804688 2282.8125 M 1216.796875 2319.21875 L 1216.796875 2303.59375 M 1268.789062 2319.21875 L 1268.789062 2303.59375 M 1320.78125 2319.21875 L 1320.78125 2303.59375 M 1372.8125 2319.21875 L 1372.8125 2303.59375 M 1164.804688 2319.21875 L 1164.804688 2282.8125 M 1476.796875 2319.21875 L 1476.796875 2303.59375 M 1528.789062 2319.21875 L 1528.789062 2303.59375 M 1580.78125 2319.21875 L 1580.78125 2303.59375 M 1632.8125 2319.21875 L 1632.8125 2303.59375 M 1424.804688 2319.21875 L 1424.804688 2282.8125 M 1736.796875 2319.21875 L 1736.796875 2303.59375 M 1788.789062 2319.21875 L 1788.789062 2303.59375 M 1840.78125 2319.21875 L 1840.78125 2303.59375 M 1892.8125 2319.21875 L 1892.8125 2303.59375 M 1684.804688 2319.21875 L 1684.804688 2282.8125 M 1996.796875 2319.21875 L 1996.796875 2303.59375 M 2048.789062 2319.21875 L 2048.789062 2303.59375 M 2100.78125 2319.21875 L 2100.78125 2303.59375 M 1944.804688 2319.21875 L 1944.804688 2282.8125 M 124.804688 2267.1875 L 140.390625 2267.1875 M 124.804688 2215.195312 L 140.390625 2215.195312 M 124.804688 2163.203125 L 140.390625 2163.203125 M 124.804688 2111.210938 L 140.390625 2111.210938 M 124.804688 2319.21875 L 161.210938 2319.21875 M 124.804688 2007.1875 L 140.390625 2007.1875 M 124.804688 1955.195312 L 140.390625 1955.195312 M 124.804688 1903.203125 L 140.390625 1903.203125 M 124.804688 1851.210938 L 140.390625 1851.210938 M 124.804688 2059.21875 L 161.210938 2059.21875 M 124.804688 1747.1875 L 140.390625 1747.1875 M 124.804688 1695.195312 L 140.390625 1695.195312 M 124.804688 1643.203125 L 140.390625 1643.203125 M 124.804688 1591.210938 L 140.390625 1591.210938 M 124.804688 1799.21875 L 161.210938 1799.21875 M 124.804688 1487.1875 L 140.390625 1487.1875 M 124.804688 1435.195312 L 140.390625 1435.195312 M 124.804688 1383.203125 L 140.390625 1383.203125 M 124.804688 1331.210938 L 140.390625 1331.210938 M 124.804688 1539.21875 L 161.210938 1539.21875 M 124.804688 1227.1875 L 140.390625 1227.1875 M 124.804688 1175.195312 L 140.390625 1175.195312 M 124.804688 1123.203125 L 140.390625 1123.203125 M 124.804688 1071.210938 L 140.390625 1071.210938 M 124.804688 1279.21875 L 161.210938 1279.21875 M 124.804688 967.1875 L 140.390625 967.1875 M 124.804688 915.195312 L 140.390625 915.195312 M 124.804688 863.203125 L 140.390625 863.203125 M 124.804688 811.210938 L 140.390625 811.210938 M 124.804688 1019.21875 L 161.210938 1019.21875 M 124.804688 707.1875 L 140.390625 707.1875 M 124.804688 655.195312 L 140.390625 655.195312 M 124.804688 603.203125 L 140.390625 603.203125 M 124.804688 551.210938 L 140.390625 551.210938 M 124.804688 759.179688 L 161.210938 759.179688 M 124.804688 499.179688 L 161.210938 499.179688 M 124.804688 1279.21875 L 2111.210938 1279.21875 M 1424.804688 2319.21875 L 1424.804688 488.789062 M 176.796875 1294.804688 L 176.796875 1258.398438 M 228.789062 1294.804688 L 228.789062 1258.398438 M 280.820312 1294.804688 L 280.820312 1258.398438 M 332.8125 1294.804688 L 332.8125 1258.398438 M 124.804688 1310.390625 L 124.804688 1242.8125 M 436.796875 1294.804688 L 436.796875 1258.398438 M 488.789062 1294.804688 L 488.789062 1258.398438 M 540.820312 1294.804688 L 540.820312 1258.398438 M 592.8125 1294.804688 L 592.8125 1258.398438 M 384.804688 1310.390625 L 384.804688 1242.8125 M 696.796875 1294.804688 L 696.796875 1258.398438 M 748.789062 1294.804688 L 748.789062 1258.398438 M 800.820312 1294.804688 L 800.820312 1258.398438 M 852.8125 1294.804688 L 852.8125 1258.398438 M 644.804688 1310.390625 L 644.804688 1242.8125 M 956.796875 1294.804688 L 956.796875 1258.398438 M 1008.789062 1294.804688 L 1008.789062 1258.398438 M 1060.78125 1294.804688 L 1060.78125 1258.398438 M 1112.8125 1294.804688 L 1112.8125 1258.398438 M 904.804688 1310.390625 L 904.804688 1242.8125 M 1216.796875 1294.804688 L 1216.796875 1258.398438 M 1268.789062 1294.804688 L 1268.789062 1258.398438 M 1320.78125 1294.804688 L 1320.78125 1258.398438 M 1372.8125 1294.804688 L 1372.8125 1258.398438 M 1164.804688 1310.390625 L 1164.804688 1242.8125 M 1476.796875 1294.804688 L 1476.796875 1258.398438 M 1528.789062 1294.804688 L 1528.789062 1258.398438 M 1580.78125 1294.804688 L 1580.78125 1258.398438 M 1632.8125 1294.804688 L 1632.8125 1258.398438 M 1424.804688 1310.390625 L 1424.804688 1242.8125 M 1736.796875 1294.804688 L 1736.796875 1258.398438 M 1788.789062 1294.804688 L 1788.789062 1258.398438 M 1840.78125 1294.804688 L 1840.78125 1258.398438 M 1892.8125 1294.804688 L 1892.8125 1258.398438 M 1684.804688 1310.390625 L 1684.804688 1242.8125 M 1996.796875 1294.804688 L 1996.796875 1258.398438 M 2048.789062 1294.804688 L 2048.789062 1258.398438 M 2100.78125 1294.804688 L 2100.78125 1258.398438 M 1944.804688 1310.390625 L 1944.804688 1242.8125 M 1409.21875 2267.1875 L 1445.585938 2267.1875 M 1409.21875 2215.195312 L 1445.585938 2215.195312 M 1409.21875 2163.203125 L 1445.585938 2163.203125 M 1409.21875 2111.210938 L 1445.585938 2111.210938 M 1393.59375 2319.21875 L 1461.210938 2319.21875 M 1409.21875 2007.1875 L 1445.585938 2007.1875 M 1409.21875 1955.195312 L 1445.585938 1955.195312 M 1409.21875 1903.203125 L 1445.585938 1903.203125 M 1409.21875 1851.210938 L 1445.585938 1851.210938 M 1393.59375 2059.21875 L 1461.210938 2059.21875 M 1409.21875 1747.1875 L 1445.585938 1747.1875 M 1409.21875 1695.195312 L 1445.585938 1695.195312 M 1409.21875 1643.203125 L 1445.585938 1643.203125 M 1409.21875 1591.210938 L 1445.585938 1591.210938 M 1393.59375 1799.21875 L 1461.210938 1799.21875 M 1409.21875 1487.1875 L 1445.585938 1487.1875 M 1409.21875 1435.195312 L 1445.585938 1435.195312 M 1409.21875 1383.203125 L 1445.585938 1383.203125 M 1409.21875 1331.210938 L 1445.585938 1331.210938 M 1393.59375 1539.21875 L 1461.210938 1539.21875 M 1409.21875 1227.1875 L 1445.585938 1227.1875 M 1409.21875 1175.195312 L 1445.585938 1175.195312 M 1409.21875 1123.203125 L 1445.585938 1123.203125 M 1409.21875 1071.210938 L 1445.585938 1071.210938 M 1393.59375 1279.21875 L 1461.210938 1279.21875 M 1409.21875 967.1875 L 1445.585938 967.1875 M 1409.21875 915.195312 L 1445.585938 915.195312 M 1409.21875 863.203125 L 1445.585938 863.203125 M 1409.21875 811.210938 L 1445.585938 811.210938 M 1393.59375 1019.21875 L 1461.210938 1019.21875 M 1409.21875 707.1875 L 1445.585938 707.1875 M 1409.21875 655.195312 L 1445.585938 655.195312 M 1409.21875 603.203125 L 1445.585938 603.203125 M 1409.21875 551.210938 L 1445.585938 551.210938 M 1393.59375 759.179688 L 1461.210938 759.179688 M 1393.59375 499.179688 L 1461.210938 499.179688 M 384.804688 2319.21875 L 384.804688 488.789062 M 644.804688 2319.21875 L 644.804688 488.789062 M 904.804688 2319.21875 L 904.804688 488.789062 M 1164.804688 2319.21875 L 1164.804688 488.789062 M 1424.804688 2319.21875 L 1424.804688 488.789062 M 1684.804688 2319.21875 L 1684.804688 488.789062 M 1944.804688 2319.21875 L 1944.804688 488.789062 M 124.804688 2059.21875 L 2111.210938 2059.21875 M 124.804688 1799.21875 L 2111.210938 1799.21875 M 124.804688 1539.21875 L 2111.210938 1539.21875 M 124.804688 1279.21875 L 2111.210938 1279.21875 M 124.804688 1019.21875 L 2111.210938 1019.21875 M 124.804688 759.179688 L 2111.210938 759.179688 M 124.804688 499.179688 L 2111.210938 499.179688 " transform="matrix(0.1,0,0,-0.1,0,252)"/>
<path style="fill:none;stroke-width:5.2;stroke-linecap:butt;stroke-linejoin:miter;stroke:rgb(0%,0%,0%);stroke-opacity:1;stroke-miterlimit:10;" d="M 124.804688 233.984375 L 124.804688 332.8125 M 2730 332.8125 L 2730 233.984375 L 124.804688 233.984375 M 176.796875 233.984375 L 176.796875 249.609375 M 228.789062 233.984375 L 228.789062 249.609375 M 280.820312 233.984375 L 280.820312 249.609375 M 332.8125 233.984375 L 332.8125 249.609375 M 124.804688 233.984375 L 124.804688 270.390625 M 436.796875 233.984375 L 436.796875 249.609375 M 488.789062 233.984375 L 488.789062 249.609375 M 540.820312 233.984375 L 540.820312 249.609375 M 592.8125 233.984375 L 592.8125 249.609375 M 384.804688 233.984375 L 384.804688 270.390625 M 696.796875 233.984375 L 696.796875 249.609375 M 748.789062 233.984375 L 748.789062 249.609375 M 800.820312 233.984375 L 800.820312 249.609375 M 852.8125 233.984375 L 852.8125 249.609375 M 644.804688 233.984375 L 644.804688 270.390625 M 956.796875 233.984375 L 956.796875 249.609375 M 1008.789062 233.984375 L 1008.789062 249.609375 M 1060.78125 233.984375 L 1060.78125 249.609375 M 1112.8125 233.984375 L 1112.8125 249.609375 M 904.804688 233.984375 L 904.804688 270.390625 M 1216.796875 233.984375 L 1216.796875 249.609375 M 1268.789062 233.984375 L 1268.789062 249.609375 M 1320.78125 233.984375 L 1320.78125 249.609375 M 1372.8125 233.984375 L 1372.8125 249.609375 M 1164.804688 233.984375 L 1164.804688 270.390625 M 1476.796875 233.984375 L 1476.796875 249.609375 M 1528.789062 233.984375 L 1528.789062 249.609375 M 1580.78125 233.984375 L 1580.78125 249.609375 M 1632.8125 233.984375 L 1632.8125 249.609375 M 1424.804688 233.984375 L 1424.804688 270.390625 M 1736.796875 233.984375 L 1736.796875 249.609375 M 1788.789062 233.984375 L 1788.789062 249.609375 M 1840.78125 233.984375 L 1840.78125 249.609375 M 1892.8125 233.984375 L 1892.8125 249.609375 M 1684.804688 233.984375 L 1684.804688 270.390625 M 1996.796875 233.984375 L 1996.796875 249.609375 M 2048.789062 233.984375 L 2048.789062 249.609375 M 2100.78125 233.984375 L 2100.78125 249.609375 M 2152.8125 233.984375 L 2152.8125 249.609375 M 1944.804688 233.984375 L 1944.804688 270.390625 M 2256.796875 233.984375 L 2256.796875 249.609375 M 2308.789062 233.984375 L 2308.789062 249.609375 M 2360.78125 233.984375 L 2360.78125 249.609375 M 2412.8125 233.984375 L 2412.8125 249.609375 M 2204.804688 233.984375 L 2204.804688 270.390625 M 2516.796875 233.984375 L 2516.796875 249.609375 M 2568.789062 233.984375 L 2568.789062 249.609375 M 2620.78125 233.984375 L 2620.78125 249.609375 M 2672.8125 233.984375 L 2672.8125 249.609375 M 2464.804688 233.984375 L 2464.804688 270.390625 M 124.804688 291.210938 L 140.390625 291.210938 M 2730 291.210938 L 2714.414062 291.210938 M 1424.804688 332.8125 L 1424.804688 233.984375 M 1409.21875 291.210938 L 1445.585938 291.210938 M 384.804688 332.8125 L 384.804688 233.984375 M 644.804688 332.8125 L 644.804688 233.984375 M 904.804688 332.8125 L 904.804688 233.984375 M 1164.804688 332.8125 L 1164.804688 233.984375 M 1424.804688 332.8125 L 1424.804688 233.984375 M 1684.804688 332.8125 L 1684.804688 233.984375 M 1944.804688 332.8125 L 1944.804688 233.984375 M 2204.804688 332.8125 L 2204.804688 233.984375 M 2464.804688 332.8125 L 2464.804688 233.984375 " transform="matrix(0.1,0,0,-0.1,0,252)"/>
<path style="fill:none;stroke-width:5.2;stroke-linecap:butt;stroke-linejoin:miter;stroke:rgb(0%,0%,0%);stroke-opacity:1;stroke-miterlimit:10;" d="M 124.804688 332.8125 L 124.804688 410.820312 M 124.804688 395.195312 L 140.390625 395.195312 M 124.804688 343.203125 L 140.390625 343.203125 M 1424.804688 410.820312 L 1424.804688 332.8125 M 1409.21875 395.195312 L 1445.585938 395.195312 M 1409.21875 343.203125 L 1445.585938 343.203125 M 384.804688 410.820312 L 384.804688 332.8125 M 644.804688 410.820312 L 644.804688 332.8125 M 904.804688 410.820312 L 904.804688 332.8125 M 1164.804688 410.820312 L 1164.804688 332.8125 M 1424.804688 410.820312 L 1424.804688 332.8125 M 1684.804688 410.820312 L 1684.804688 332.8125 M 1944.804688 410.820312 L 1944.804688 332.8125 M 2204.804688 410.820312 L 2204.804688 332.8125 M 2464.804688 410.820312 L 2464.804688 332.8125 " transform="matrix(0.1,0,0,-0.1,0,252)"/>
<path style="fill:none;stroke-width:5.2;stroke-linecap:butt;stroke-linejoin:miter;stroke:rgb(0%,0%,0%);stroke-opacity:1;stroke-miterlimit:10;" d="M 2730 410.820312 L 2730 332.8125 M 2730 395.195312 L 2714.414062 395.195312 M 2730 343.203125 L 2714.414062 343.203125 " transform="matrix(0.1,0,0,-0.1,0,252)"/>
<path style="fill:none;stroke-width:5.2;stroke-linecap:butt;stroke-linejoin:miter;stroke:rgb(0%,0%,0%);stroke-opacity:1;stroke-miterlimit:10;" d="M 124.804688 410.820312 L 124.804688 488.789062 M 124.804688 447.1875 L 140.390625 447.1875 " transform="matrix(0.1,0,0,-0.1,0,252)"/>
<path style="fill:none;stroke-width:5.2;stroke-linecap:butt;stroke-linejoin:miter;stroke:rgb(0%,0%,0%);stroke-opacity:1;stroke-miterlimit:10;" d="M 2730 488.789062 L 2730 410.820312 M 2730 447.1875 L 2714.414062 447.1875 " transform="matrix(0.1,0,0,-0.1,0,252)"/>
<path style="fill:none;stroke-width:5.2;stroke-linecap:butt;stroke-linejoin:miter;stroke:rgb(0%,0%,0%);stroke-opacity:1;stroke-miterlimit:10;" d="M 2111.210938 2319.21875 L 2730 2319.21875 L 2730 488.789062 M 2152.8125 2319.21875 L 2152.8125 2303.59375 M 2256.796875 2319.21875 L 2256.796875 2303.59375 M 2308.789062 2319.21875 L 2308.789062 2303.59375 M 2360.78125 2319.21875 L 2360.78125 2303.59375 M 2412.8125 2319.21875 L 2412.8125 2303.59375 M 2204.804688 2319.21875 L 2204.804688 2282.8125 M 2516.796875 2319.21875 L 2516.796875 2303.59375 M 2568.789062 2319.21875 L 2568.789062 2303.59375 M 2620.78125 2319.21875 L 2620.78125 2303.59375 M 2672.8125 2319.21875 L 2672.8125 2303.59375 M 2464.804688 2319.21875 L 2464.804688 2282.8125 M 2730 2267.1875 L 2714.414062 2267.1875 M 2730 2215.195312 L 2714.414062 2215.195312 M 2730 2163.203125 L 2714.414062 2163.203125 M 2730 2111.210938 L 2714.414062 2111.210938 M 2730 2319.21875 L 2693.59375 2319.21875 M 2730 2007.1875 L 2714.414062 2007.1875 M 2730 1955.195312 L 2714.414062 1955.195312 M 2730 1903.203125 L 2714.414062 1903.203125 M 2730 1851.210938 L 2714.414062 1851.210938 M 2730 2059.21875 L 2693.59375 2059.21875 M 2730 1747.1875 L 2714.414062 1747.1875 M 2730 1695.195312 L 2714.414062 1695.195312 M 2730 1643.203125 L 2714.414062 1643.203125 M 2730 1591.210938 L 2714.414062 1591.210938 M 2730 1799.21875 L 2693.59375 1799.21875 M 2730 1487.1875 L 2714.414062 1487.1875 M 2730 1435.195312 L 2714.414062 1435.195312 M 2730 1383.203125 L 2714.414062 1383.203125 M 2730 1331.210938 L 2714.414062 1331.210938 M 2730 1539.21875 L 2693.59375 1539.21875 M 2730 1227.1875 L 2714.414062 1227.1875 M 2730 1175.195312 L 2714.414062 1175.195312 M 2730 1123.203125 L 2714.414062 1123.203125 M 2730 1071.210938 L 2714.414062 1071.210938 M 2730 1279.21875 L 2693.59375 1279.21875 M 2730 967.1875 L 2714.414062 967.1875 M 2730 915.195312 L 2714.414062 915.195312 M 2730 863.203125 L 2714.414062 863.203125 M 2730 811.210938 L 2714.414062 811.210938 M 2730 1019.21875 L 2693.59375 1019.21875 M 2730 707.1875 L 2714.414062 707.1875 M 2730 655.195312 L 2714.414062 655.195312 M 2730 603.203125 L 2714.414062 603.203125 M 2730 551.210938 L 2714.414062 551.210938 M 2730 759.179688 L 2693.59375 759.179688 M 2730 499.179688 L 2693.59375 499.179688 M 2111.210938 1279.21875 L 2730 1279.21875 M 2152.8125 1294.804688 L 2152.8125 1258.398438 M 2256.796875 1294.804688 L 2256.796875 1258.398438 M 2308.789062 1294.804688 L 2308.789062 1258.398438 M 2360.78125 1294.804688 L 2360.78125 1258.398438 M 2412.8125 1294.804688 L 2412.8125 1258.398438 M 2204.804688 1310.390625 L 2204.804688 1242.8125 M 2516.796875 1294.804688 L 2516.796875 1258.398438 M 2568.789062 1294.804688 L 2568.789062 1258.398438 M 2620.78125 1294.804688 L 2620.78125 1258.398438 M 2672.8125 1294.804688 L 2672.8125 1258.398438 M 2464.804688 1310.390625 L 2464.804688 1242.8125 M 2204.804688 2319.21875 L 2204.804688 488.789062 M 2464.804688 2319.21875 L 2464.804688 488.789062 M 2111.210938 2059.21875 L 2730 2059.21875 M 2111.210938 1799.21875 L 2730 1799.21875 M 2111.210938 1539.21875 L 2730 1539.21875 M 2111.210938 1279.21875 L 2730 1279.21875 M 2111.210938 1019.21875 L 2730 1019.21875 M 2111.210938 759.179688 L 2730 759.179688 M 2111.210938 499.179688 L 2730 499.179688 " transform="matrix(0.1,0,0,-0.1,0,252)"/>
<path style="fill:none;stroke-width:5.2;stroke-linecap:butt;stroke-linejoin:miter;stroke:rgb(0%,0%,0%);stroke-opacity:1;stroke-miterlimit:10;" d="M 20.820312 2428.398438 L 20.820312 2485.585938 M 0 2485.585938 L 41.601562 2485.585938 M 88.398438 2485.585938 L 57.1875 2485.585938 L 57.1875 2428.398438 L 88.398438 2428.398438 M 57.1875 2459.609375 L 83.203125 2459.609375 M 103.984375 2485.585938 L 103.984375 2428.398438 M 140.390625 2485.585938 L 103.984375 2459.609375 L 145.585938 2428.398438 " transform="matrix(0.1,0,0,-0.1,0,252)"/>
<path style="fill:none;stroke-width:5.2;stroke-linecap:butt;stroke-linejoin:miter;stroke:rgb(0%,0%,0%);stroke-opacity:1;stroke-miterlimit:10;" d="M 192.382812 2428.398438 L 192.382812 2480.390625 L 218.398438 2480.390625 L 223.59375 2475.195312 L 223.59375 2464.804688 L 213.203125 2454.414062 L 192.382812 2454.414062 M 213.203125 2454.414062 L 228.789062 2428.398438 M 244.414062 2470 L 244.414062 2433.59375 L 249.609375 2428.398438 L 254.804688 2428.398438 L 280.820312 2443.984375 M 280.820312 2470 L 280.820312 2428.398438 M 301.601562 2470 L 301.601562 2428.398438 M 301.601562 2454.414062 L 322.382812 2470 L 332.8125 2470 L 338.007812 2464.804688 L 338.007812 2428.398438 M 358.789062 2470 L 358.789062 2428.398438 M 358.789062 2454.414062 L 379.609375 2470 L 390 2470 L 395.195312 2464.804688 L 395.195312 2428.398438 M 421.210938 2485.585938 L 421.210938 2480.390625 M 421.210938 2464.804688 L 421.210938 2428.398438 M 441.992188 2470 L 441.992188 2428.398438 M 441.992188 2454.414062 L 462.8125 2470 L 473.203125 2470 L 478.398438 2464.804688 L 478.398438 2428.398438 M 530.390625 2443.984375 L 514.804688 2433.59375 L 504.414062 2433.59375 L 493.984375 2443.984375 L 493.984375 2459.609375 L 504.414062 2470 L 530.390625 2470 L 530.390625 2418.007812 L 525.195312 2412.8125 L 499.179688 2412.8125 L 493.984375 2418.007812 M 556.40625 2470 L 556.40625 2464.804688 M 556.40625 2433.59375 L 556.40625 2428.398438 " transform="matrix(0.1,0,0,-0.1,0,252)"/>
<path style="fill:none;stroke-width:5.2;stroke-linecap:butt;stroke-linejoin:miter;stroke:rgb(0%,0%,0%);stroke-opacity:1;stroke-miterlimit:10;" d="M 603.203125 2428.398438 L 629.179688 2480.390625 L 650 2428.398438 M 613.59375 2443.984375 L 644.804688 2443.984375 M 670.820312 2470 L 670.820312 2433.59375 L 676.015625 2428.398438 L 681.210938 2428.398438 L 707.1875 2443.984375 M 707.1875 2470 L 707.1875 2428.398438 M 728.007812 2480.390625 L 728.007812 2433.59375 L 733.203125 2428.398438 L 743.59375 2428.398438 M 722.8125 2470 L 743.59375 2470 M 759.179688 2459.609375 L 769.609375 2470 L 785.195312 2470 L 795.585938 2459.609375 L 795.585938 2438.789062 L 785.195312 2428.398438 L 769.609375 2428.398438 L 759.179688 2438.789062 L 759.179688 2459.609375 M 821.601562 2485.585938 L 821.601562 2480.390625 M 821.601562 2464.804688 L 821.601562 2428.398438 M 842.382812 2470 L 842.382812 2428.398438 M 842.382812 2454.414062 L 863.203125 2470 L 873.59375 2470 L 878.789062 2464.804688 L 878.789062 2428.398438 M 930.820312 2443.984375 L 915.195312 2433.59375 L 904.804688 2433.59375 L 894.414062 2443.984375 L 894.414062 2459.609375 L 904.804688 2470 L 930.820312 2470 L 930.820312 2418.007812 L 925.585938 2412.8125 L 899.609375 2412.8125 L 894.414062 2418.007812 " transform="matrix(0.1,0,0,-0.1,0,252)"/>
<path style="fill:none;stroke-width:5.2;stroke-linecap:butt;stroke-linejoin:miter;stroke:rgb(0%,0%,0%);stroke-opacity:1;stroke-miterlimit:10;" d="M 192.382812 468.007812 L 187.1875 473.203125 L 166.40625 473.203125 L 156.015625 468.007812 L 150.820312 457.617188 L 150.820312 436.796875 L 156.015625 426.40625 L 166.40625 421.210938 L 187.1875 421.210938 L 192.382812 426.40625 M 208.007812 478.398438 L 208.007812 421.210938 M 208.007812 447.1875 L 228.789062 462.8125 L 239.179688 462.8125 L 244.414062 457.617188 L 244.414062 421.210938 M 286.015625 473.203125 L 286.015625 421.210938 M 270.390625 468.007812 L 286.015625 468.007812 " transform="matrix(0.1,0,0,-0.1,0,252)"/>
<path style="fill:none;stroke-width:5.2;stroke-linecap:butt;stroke-linejoin:miter;stroke:rgb(0%,0%,0%);stroke-opacity:1;stroke-miterlimit:10;" d="M 410.820312 473.203125 L 410.820312 421.210938 M 395.195312 468.007812 L 410.820312 468.007812 M 447.1875 426.40625 L 447.1875 421.210938 M 483.59375 473.203125 L 473.203125 462.8125 L 473.203125 431.601562 L 483.59375 421.210938 L 493.984375 421.210938 L 504.414062 431.601562 L 504.414062 462.8125 L 493.984375 473.203125 L 483.59375 473.203125 M 535.585938 473.203125 L 525.195312 462.8125 L 525.195312 431.601562 L 535.585938 421.210938 L 546.015625 421.210938 L 556.40625 431.601562 L 556.40625 462.8125 L 546.015625 473.203125 L 535.585938 473.203125 M 598.007812 473.203125 L 618.789062 421.210938 L 639.609375 473.203125 " transform="matrix(0.1,0,0,-0.1,0,252)"/>
<path style="fill:none;stroke-width:5.2;stroke-linecap:butt;stroke-linejoin:miter;stroke:rgb(0%,0%,0%);stroke-opacity:1;stroke-miterlimit:10;" d="M 738.398438 468.007812 L 733.203125 473.203125 L 712.382812 473.203125 L 701.992188 468.007812 L 696.796875 457.617188 L 696.796875 436.796875 L 701.992188 426.40625 L 712.382812 421.210938 L 733.203125 421.210938 L 738.398438 426.40625 M 753.984375 478.398438 L 753.984375 421.210938 M 753.984375 447.1875 L 774.804688 462.8125 L 785.195312 462.8125 L 790.390625 457.617188 L 790.390625 421.210938 M 811.210938 468.007812 L 816.40625 473.203125 L 837.1875 473.203125 L 842.382812 468.007812 L 842.382812 452.382812 L 811.210938 426.40625 L 811.210938 421.210938 L 842.382812 421.210938 " transform="matrix(0.1,0,0,-0.1,0,252)"/>
<path style="fill:none;stroke-width:5.2;stroke-linecap:butt;stroke-linejoin:miter;stroke:rgb(0%,0%,0%);stroke-opacity:1;stroke-miterlimit:10;" d="M 915.195312 468.007812 L 920.390625 473.203125 L 941.210938 473.203125 L 946.40625 468.007812 L 946.40625 452.382812 L 915.195312 426.40625 L 915.195312 421.210938 L 946.40625 421.210938 M 977.617188 473.203125 L 967.1875 462.8125 L 967.1875 431.601562 L 977.617188 421.210938 L 988.007812 421.210938 L 998.398438 431.601562 L 998.398438 462.8125 L 988.007812 473.203125 L 977.617188 473.203125 M 1029.609375 473.203125 L 1019.21875 462.8125 L 1019.21875 431.601562 L 1029.609375 421.210938 L 1040 421.210938 L 1050.390625 431.601562 L 1050.390625 462.8125 L 1040 473.203125 L 1029.609375 473.203125 M 1071.210938 462.8125 L 1071.210938 421.210938 M 1071.210938 447.1875 L 1091.992188 462.8125 L 1097.1875 462.8125 L 1097.1875 421.210938 M 1097.1875 447.1875 L 1118.007812 462.8125 L 1123.203125 462.8125 L 1128.398438 457.617188 L 1128.398438 421.210938 M 1143.984375 473.203125 L 1164.804688 421.210938 L 1185.585938 473.203125 " transform="matrix(0.1,0,0,-0.1,0,252)"/>
<path style="fill:none;stroke-width:5.2;stroke-linecap:butt;stroke-linejoin:miter;stroke:rgb(0%,0%,0%);stroke-opacity:1;stroke-miterlimit:10;" d="M 1388.398438 473.203125 L 1357.1875 473.203125 L 1357.1875 452.382812 L 1378.007812 452.382812 L 1388.398438 441.992188 L 1388.398438 426.40625 L 1383.203125 421.210938 L 1362.382812 421.210938 L 1357.1875 426.40625 M 1414.414062 426.40625 L 1414.414062 421.210938 M 1450.78125 473.203125 L 1440.390625 462.8125 L 1440.390625 431.601562 L 1450.78125 421.210938 L 1461.210938 421.210938 L 1471.601562 431.601562 L 1471.601562 462.8125 L 1461.210938 473.203125 L 1450.78125 473.203125 M 1502.8125 473.203125 L 1492.382812 462.8125 L 1492.382812 431.601562 L 1502.8125 421.210938 L 1513.203125 421.210938 L 1523.59375 431.601562 L 1523.59375 462.8125 L 1513.203125 473.203125 L 1502.8125 473.203125 M 1544.414062 462.8125 L 1544.414062 421.210938 M 1544.414062 447.1875 L 1565.195312 462.8125 L 1575.585938 462.8125 L 1580.78125 457.617188 L 1580.78125 421.210938 M 1622.382812 457.617188 L 1617.1875 462.8125 L 1601.601562 462.8125 L 1596.40625 457.617188 L 1596.40625 447.1875 L 1622.382812 436.796875 L 1622.382812 426.40625 L 1617.1875 421.210938 L 1601.601562 421.210938 L 1596.40625 426.40625 " transform="matrix(0.1,0,0,-0.1,0,252)"/>
<path style="fill:none;stroke-width:5.2;stroke-linecap:butt;stroke-linejoin:miter;stroke:rgb(0%,0%,0%);stroke-opacity:1;stroke-miterlimit:10;" d="M 1253.203125 421.210938 L 1253.203125 473.203125 L 1279.21875 426.40625 L 1305.195312 473.203125 L 1305.195312 421.210938 " transform="matrix(0.1,0,0,-0.1,0,252)"/>
<path style="fill:none;stroke-width:5.2;stroke-linecap:butt;stroke-linejoin:miter;stroke:rgb(0%,0%,0%);stroke-opacity:1;stroke-miterlimit:10;" d="M 1669.21875 473.203125 L 1638.007812 421.210938 M 1721.210938 431.601562 L 1705.585938 421.210938 L 1695.195312 421.210938 L 1684.804688 431.601562 L 1684.804688 452.382812 L 1695.195312 462.8125 L 1721.210938 462.8125 M 1721.210938 478.398438 L 1721.210938 421.210938 " transform="matrix(0.1,0,0,-0.1,0,252)"/>
<path style="fill:none;stroke-width:5.2;stroke-linecap:butt;stroke-linejoin:miter;stroke:rgb(0%,0%,0%);stroke-opacity:1;stroke-miterlimit:10;" d="M 1846.015625 447.1875 L 1887.617188 447.1875 M 1929.21875 473.203125 L 1929.21875 421.210938 M 1913.59375 468.007812 L 1929.21875 468.007812 M 1965.585938 426.40625 L 1965.585938 421.210938 M 2022.8125 473.203125 L 1991.601562 473.203125 L 1991.601562 452.382812 L 2012.382812 452.382812 L 2022.8125 441.992188 L 2022.8125 426.40625 L 2017.617188 421.210938 L 1996.796875 421.210938 L 1991.601562 426.40625 M 2053.984375 473.203125 L 2043.59375 462.8125 L 2043.59375 431.601562 L 2053.984375 421.210938 L 2064.414062 421.210938 L 2074.804688 431.601562 L 2074.804688 462.8125 L 2064.414062 473.203125 L 2053.984375 473.203125 M 2106.015625 473.203125 L 2095.585938 462.8125 L 2095.585938 431.601562 L 2106.015625 421.210938 L 2116.40625 421.210938 L 2126.796875 431.601562 L 2126.796875 462.8125 L 2116.40625 473.203125 L 2106.015625 473.203125 M 2147.617188 462.8125 L 2147.617188 421.210938 M 2147.617188 447.1875 L 2168.398438 462.8125 L 2178.789062 462.8125 L 2183.984375 457.617188 L 2183.984375 421.210938 M 2225.585938 457.617188 L 2220.390625 462.8125 L 2204.804688 462.8125 L 2199.609375 457.617188 L 2199.609375 447.1875 L 2225.585938 436.796875 L 2225.585938 426.40625 L 2220.390625 421.210938 L 2204.804688 421.210938 L 2199.609375 426.40625 " transform="matrix(0.1,0,0,-0.1,0,252)"/>
<path style="fill:none;stroke-width:5.2;stroke-linecap:butt;stroke-linejoin:miter;stroke:rgb(0%,0%,0%);stroke-opacity:1;stroke-miterlimit:10;" d="M 2584.414062 395.195312 L 2605.195312 395.195312 L 2620.78125 343.203125 L 2641.601562 343.203125 " transform="matrix(0.1,0,0,-0.1,0,252)"/>
<path style="fill:none;stroke-width:5.2;stroke-linecap:butt;stroke-linejoin:miter;stroke:rgb(0%,0%,0%);stroke-opacity:1;stroke-miterlimit:10;" d="M 2464.804688 473.203125 L 2464.804688 421.210938 M 2449.21875 468.007812 L 2464.804688 468.007812 M 2501.210938 426.40625 L 2501.210938 421.210938 M 2527.1875 468.007812 L 2532.382812 473.203125 L 2553.203125 473.203125 L 2558.398438 468.007812 L 2558.398438 457.617188 L 2548.007812 447.1875 L 2537.617188 447.1875 L 2548.007812 447.1875 L 2558.398438 436.796875 L 2558.398438 426.40625 L 2553.203125 421.210938 L 2532.382812 421.210938 L 2527.1875 426.40625 M 2600 473.203125 L 2600 421.210938 M 2584.414062 468.007812 L 2600 468.007812 M 2651.992188 473.203125 L 2672.8125 421.210938 L 2693.59375 473.203125 " transform="matrix(0.1,0,0,-0.1,0,252)"/>
<path style="fill:none;stroke-width:5.2;stroke-linecap:butt;stroke-linejoin:miter;stroke:rgb(0%,0%,0%);stroke-opacity:1;stroke-miterlimit:10;" d="M 0 0 L 0 233.984375 L 473.203125 233.984375 L 473.203125 0 " transform="matrix(0.1,0,0,-0.1,0,252)"/>
<path style="fill:none;stroke-width:5.2;stroke-linecap:butt;stroke-linejoin:miter;stroke:rgb(0%,0%,0%);stroke-opacity:1;stroke-miterlimit:10;" d="M 124.804688 181.992188 L 98.789062 181.992188 L 98.789062 130 M 119.609375 156.015625 L 98.789062 156.015625 M 140.390625 161.210938 L 150.820312 171.601562 L 166.40625 171.601562 L 176.796875 161.210938 L 176.796875 140.390625 L 166.40625 130 L 150.820312 130 L 140.390625 140.390625 L 140.390625 161.210938 M 197.617188 171.601562 L 197.617188 130 M 197.617188 156.015625 L 218.398438 171.601562 M 233.984375 171.601562 L 233.984375 130 M 233.984375 156.015625 L 254.804688 171.601562 L 260 171.601562 L 260 130 M 260 156.015625 L 280.820312 171.601562 L 286.015625 171.601562 L 291.210938 166.40625 L 291.210938 130 M 332.8125 150.820312 L 311.992188 150.820312 L 306.796875 145.585938 L 306.796875 135.195312 L 311.992188 130 L 322.382812 130 L 332.8125 135.195312 M 306.796875 166.40625 L 311.992188 171.601562 L 327.617188 171.601562 L 332.8125 166.40625 L 332.8125 130 L 338.007812 130 M 353.59375 181.992188 L 353.59375 135.195312 L 358.789062 130 L 369.179688 130 M 348.398438 171.601562 L 369.179688 171.601562 " transform="matrix(0.1,0,0,-0.1,0,252)"/>
<path style="fill:none;stroke-width:5.2;stroke-linecap:butt;stroke-linejoin:miter;stroke:rgb(0%,0%,0%);stroke-opacity:1;stroke-miterlimit:10;" d="M 78.007812 103.984375 L 51.992188 103.984375 L 51.992188 51.992188 L 78.007812 51.992188 M 51.992188 78.007812 L 72.8125 78.007812 M 98.789062 72.8125 L 119.609375 72.8125 L 130 83.203125 L 130 98.789062 L 124.804688 103.984375 L 98.789062 103.984375 L 98.789062 51.992188 M 176.796875 98.789062 L 171.601562 103.984375 L 150.820312 103.984375 L 145.585938 98.789062 L 145.585938 88.398438 L 176.796875 72.8125 L 176.796875 57.1875 L 171.601562 51.992188 L 150.820312 51.992188 L 145.585938 57.1875 M 260 98.789062 L 254.804688 103.984375 L 233.984375 103.984375 L 223.59375 98.789062 L 218.398438 88.398438 L 218.398438 67.617188 L 223.59375 57.1875 L 233.984375 51.992188 L 254.804688 51.992188 L 260 57.1875 M 270.390625 83.203125 L 280.820312 93.59375 L 296.40625 93.59375 L 306.796875 83.203125 L 306.796875 62.382812 L 296.40625 51.992188 L 280.820312 51.992188 L 270.390625 62.382812 L 270.390625 83.203125 M 332.8125 109.179688 L 332.8125 51.992188 M 348.398438 83.203125 L 358.789062 93.59375 L 374.414062 93.59375 L 384.804688 83.203125 L 384.804688 62.382812 L 374.414062 51.992188 L 358.789062 51.992188 L 348.398438 62.382812 L 348.398438 83.203125 M 405.585938 93.59375 L 405.585938 51.992188 M 405.585938 78.007812 L 426.40625 93.59375 " transform="matrix(0.1,0,0,-0.1,0,252)"/>
<path style="fill:none;stroke-width:5.2;stroke-linecap:butt;stroke-linejoin:miter;stroke:rgb(0%,0%,0%);stroke-opacity:1;stroke-miterlimit:10;" d="M 473.203125 0 L 473.203125 233.984375 L 946.40625 233.984375 L 946.40625 0 " transform="matrix(0.1,0,0,-0.1,0,252)"/>
<path style="fill:none;stroke-width:5.2;stroke-linecap:butt;stroke-linejoin:miter;stroke:rgb(0%,0%,0%);stroke-opacity:1;stroke-miterlimit:10;" d="M 577.1875 181.992188 L 577.1875 130 L 603.203125 130 M 639.609375 150.820312 L 618.789062 150.820312 L 613.59375 145.585938 L 613.59375 135.195312 L 618.789062 130 L 629.179688 130 L 639.609375 135.195312 M 613.59375 166.40625 L 618.789062 171.601562 L 634.414062 171.601562 L 639.609375 166.40625 L 639.609375 130 L 644.804688 130 M 691.601562 171.601562 L 665.585938 114.414062 M 655.195312 171.601562 L 676.015625 135.195312 M 707.1875 161.210938 L 717.617188 171.601562 L 733.203125 171.601562 L 743.59375 161.210938 L 743.59375 140.390625 L 733.203125 130 L 717.617188 130 L 707.1875 140.390625 L 707.1875 161.210938 M 764.414062 171.601562 L 764.414062 135.195312 L 769.609375 130 L 774.804688 130 L 800.820312 145.585938 M 800.820312 171.601562 L 800.820312 130 M 821.601562 181.992188 L 821.601562 135.195312 L 826.796875 130 L 837.1875 130 M 816.40625 171.601562 L 837.1875 171.601562 " transform="matrix(0.1,0,0,-0.1,0,252)"/>
<path style="fill:none;stroke-width:5.2;stroke-linecap:butt;stroke-linejoin:miter;stroke:rgb(0%,0%,0%);stroke-opacity:1;stroke-miterlimit:10;" d="M 561.601562 72.8125 L 582.382812 72.8125 L 592.8125 83.203125 L 592.8125 98.789062 L 587.617188 103.984375 L 561.601562 103.984375 L 561.601562 51.992188 M 608.398438 83.203125 L 618.789062 93.59375 L 634.414062 93.59375 L 644.804688 83.203125 L 644.804688 62.382812 L 634.414062 51.992188 L 618.789062 51.992188 L 608.398438 62.382812 L 608.398438 83.203125 M 665.585938 93.59375 L 665.585938 51.992188 M 665.585938 78.007812 L 686.40625 93.59375 M 701.992188 103.984375 L 701.992188 57.1875 L 707.1875 51.992188 L 717.617188 51.992188 M 696.796875 93.59375 L 717.617188 93.59375 M 738.398438 93.59375 L 738.398438 51.992188 M 738.398438 78.007812 L 759.179688 93.59375 M 795.585938 72.8125 L 774.804688 72.8125 L 769.609375 67.617188 L 769.609375 57.1875 L 774.804688 51.992188 L 785.195312 51.992188 L 795.585938 57.1875 M 769.609375 88.398438 L 774.804688 93.59375 L 790.390625 93.59375 L 795.585938 88.398438 L 795.585938 51.992188 L 800.820312 51.992188 M 821.601562 109.179688 L 821.601562 103.984375 M 821.601562 88.398438 L 821.601562 51.992188 M 842.382812 103.984375 L 842.382812 57.1875 L 847.617188 51.992188 L 858.007812 51.992188 M 837.1875 93.59375 L 858.007812 93.59375 " transform="matrix(0.1,0,0,-0.1,0,252)"/>
<path style="fill:none;stroke-width:5.2;stroke-linecap:butt;stroke-linejoin:miter;stroke:rgb(0%,0%,0%);stroke-opacity:1;stroke-miterlimit:10;" d="M 946.40625 0 L 946.40625 233.984375 L 1419.609375 233.984375 L 1419.609375 0 " transform="matrix(0.1,0,0,-0.1,0,252)"/>
<path style="fill:none;stroke-width:5.2;stroke-linecap:butt;stroke-linejoin:miter;stroke:rgb(0%,0%,0%);stroke-opacity:1;stroke-miterlimit:10;" d="M 1102.382812 150.820312 L 1123.203125 150.820312 L 1133.59375 161.210938 L 1133.59375 176.796875 L 1128.398438 181.992188 L 1102.382812 181.992188 L 1102.382812 130 M 1149.21875 161.210938 L 1159.609375 171.601562 L 1175.195312 171.601562 L 1185.585938 161.210938 L 1185.585938 140.390625 L 1175.195312 130 L 1159.609375 130 L 1149.21875 140.390625 L 1149.21875 161.210938 M 1206.40625 171.601562 L 1206.40625 130 M 1206.40625 156.015625 L 1227.1875 171.601562 M 1242.8125 181.992188 L 1242.8125 135.195312 L 1248.007812 130 L 1258.398438 130 M 1237.617188 171.601562 L 1258.398438 171.601562 " transform="matrix(0.1,0,0,-0.1,0,252)"/>
<path style="fill:none;stroke-width:5.2;stroke-linecap:butt;stroke-linejoin:miter;stroke:rgb(0%,0%,0%);stroke-opacity:1;stroke-miterlimit:10;" d="M 1034.804688 51.992188 L 1034.804688 103.984375 L 1060.78125 103.984375 L 1066.015625 98.789062 L 1066.015625 88.398438 L 1055.585938 78.007812 L 1034.804688 78.007812 M 1055.585938 78.007812 L 1071.210938 51.992188 M 1112.8125 98.789062 L 1107.617188 103.984375 L 1086.796875 103.984375 L 1081.601562 98.789062 L 1081.601562 88.398438 L 1112.8125 72.8125 L 1112.8125 57.1875 L 1107.617188 51.992188 L 1086.796875 51.992188 L 1081.601562 57.1875 M 1128.398438 78.007812 L 1170 78.007812 M 1190.78125 98.789062 L 1196.015625 103.984375 L 1216.796875 103.984375 L 1221.992188 98.789062 L 1221.992188 83.203125 L 1190.78125 57.1875 L 1190.78125 51.992188 L 1221.992188 51.992188 M 1242.8125 98.789062 L 1248.007812 103.984375 L 1268.789062 103.984375 L 1273.984375 98.789062 L 1273.984375 88.398438 L 1263.59375 78.007812 L 1253.203125 78.007812 L 1263.59375 78.007812 L 1273.984375 67.617188 L 1273.984375 57.1875 L 1268.789062 51.992188 L 1248.007812 51.992188 L 1242.8125 57.1875 M 1294.804688 98.789062 L 1300 103.984375 L 1320.78125 103.984375 L 1326.015625 98.789062 L 1326.015625 83.203125 L 1294.804688 57.1875 L 1294.804688 51.992188 L 1326.015625 51.992188 " transform="matrix(0.1,0,0,-0.1,0,252)"/>
<path style="fill:none;stroke-width:5.2;stroke-linecap:butt;stroke-linejoin:miter;stroke:rgb(0%,0%,0%);stroke-opacity:1;stroke-miterlimit:10;" d="M 1419.609375 0 L 1419.609375 233.984375 L 1892.8125 233.984375 L 1892.8125 0 " transform="matrix(0.1,0,0,-0.1,0,252)"/>
<path style="fill:none;stroke-width:5.2;stroke-linecap:butt;stroke-linejoin:miter;stroke:rgb(0%,0%,0%);stroke-opacity:1;stroke-miterlimit:10;" d="M 1601.601562 176.796875 L 1596.40625 181.992188 L 1575.585938 181.992188 L 1565.195312 176.796875 L 1560 166.40625 L 1560 145.585938 L 1565.195312 135.195312 L 1575.585938 130 L 1596.40625 130 L 1601.601562 135.195312 M 1622.382812 187.1875 L 1622.382812 130 M 1638.007812 150.820312 L 1669.21875 150.820312 L 1669.21875 166.40625 L 1663.984375 171.601562 L 1648.398438 171.601562 L 1638.007812 161.210938 L 1638.007812 140.390625 L 1648.398438 130 L 1663.984375 130 L 1669.21875 135.195312 M 1710.78125 150.820312 L 1690 150.820312 L 1684.804688 145.585938 L 1684.804688 135.195312 L 1690 130 L 1700.390625 130 L 1710.78125 135.195312 M 1684.804688 166.40625 L 1690 171.601562 L 1705.585938 171.601562 L 1710.78125 166.40625 L 1710.78125 130 L 1716.015625 130 M 1731.601562 171.601562 L 1731.601562 130 M 1731.601562 156.015625 L 1752.382812 171.601562 " transform="matrix(0.1,0,0,-0.1,0,252)"/>
<path style="fill:none;stroke-width:5.2;stroke-linecap:butt;stroke-linejoin:miter;stroke:rgb(0%,0%,0%);stroke-opacity:1;stroke-miterlimit:10;" d="M 1575.585938 98.789062 L 1570.390625 103.984375 L 1549.609375 103.984375 L 1544.414062 98.789062 L 1544.414062 88.398438 L 1575.585938 72.8125 L 1575.585938 57.1875 L 1570.390625 51.992188 L 1549.609375 51.992188 L 1544.414062 57.1875 M 1596.40625 93.59375 L 1596.40625 36.40625 M 1596.40625 78.007812 L 1611.992188 93.59375 L 1622.382812 93.59375 L 1632.8125 83.203125 L 1632.8125 62.382812 L 1622.382812 51.992188 L 1596.40625 51.992188 M 1648.398438 83.203125 L 1658.789062 93.59375 L 1674.414062 93.59375 L 1684.804688 83.203125 L 1684.804688 62.382812 L 1674.414062 51.992188 L 1658.789062 51.992188 L 1648.398438 62.382812 L 1648.398438 83.203125 M 1700.390625 83.203125 L 1710.78125 93.59375 L 1726.40625 93.59375 L 1736.796875 83.203125 L 1736.796875 62.382812 L 1726.40625 51.992188 L 1710.78125 51.992188 L 1700.390625 62.382812 L 1700.390625 83.203125 M 1762.8125 109.179688 L 1762.8125 51.992188 " transform="matrix(0.1,0,0,-0.1,0,252)"/>
<path style="fill:none;stroke-width:5.2;stroke-linecap:butt;stroke-linejoin:miter;stroke:rgb(0%,0%,0%);stroke-opacity:1;stroke-miterlimit:10;" d="M 1892.8125 0 L 1892.8125 233.984375 L 2366.015625 233.984375 L 2366.015625 0 " transform="matrix(0.1,0,0,-0.1,0,252)"/>
<path style="fill:none;stroke-width:5.2;stroke-linecap:butt;stroke-linejoin:miter;stroke:rgb(0%,0%,0%);stroke-opacity:1;stroke-miterlimit:10;" d="M 2366.015625 0 L 2366.015625 233.984375 L 2839.21875 233.984375 L 2839.21875 0 " transform="matrix(0.1,0,0,-0.1,0,252)"/>
<path style="fill:none;stroke-width:5.2;stroke-linecap:butt;stroke-linejoin:miter;stroke:rgb(0%,0%,0%);stroke-opacity:1;stroke-miterlimit:10;" d="M 2839.21875 0 L 2839.21875 233.984375 L 3312.382812 233.984375 L 3312.382812 0 " transform="matrix(0.1,0,0,-0.1,0,252)"/>
<path style="fill:none;stroke-width:5.2;stroke-linecap:butt;stroke-linejoin:miter;stroke:rgb(0%,0%,0%);stroke-opacity:1;stroke-miterlimit:10;" d="M 2740.390625 2111.210938 L 2740.390625 2319.21875 L 3328.007812 2319.21875 L 3328.007812 2111.210938 L 2740.390625 2111.210938 " transform="matrix(0.1,0,0,-0.1,0,252)"/>
<path style="fill:none;stroke-width:5.2;stroke-linecap:butt;stroke-linejoin:miter;stroke:rgb(0%,0%,0%);stroke-opacity:1;stroke-miterlimit:10;" d="M 2844.414062 2277.617188 L 2844.414062 2225.585938 M 2886.015625 2277.617188 L 2886.015625 2225.585938 M 2844.414062 2251.601562 L 2886.015625 2251.601562 M 2932.8125 2246.40625 L 2911.992188 2246.40625 L 2906.796875 2241.210938 L 2906.796875 2230.78125 L 2911.992188 2225.585938 L 2922.382812 2225.585938 L 2932.8125 2230.78125 M 2906.796875 2261.992188 L 2911.992188 2267.1875 L 2927.617188 2267.1875 L 2932.8125 2261.992188 L 2932.8125 2225.585938 L 2938.007812 2225.585938 M 2953.59375 2267.1875 L 2953.59375 2225.585938 M 2953.59375 2251.601562 L 2974.414062 2267.1875 M 3021.210938 2236.015625 L 3005.585938 2225.585938 L 2995.195312 2225.585938 L 2984.804688 2236.015625 L 2984.804688 2256.796875 L 2995.195312 2267.1875 L 3021.210938 2267.1875 M 3021.210938 2282.8125 L 3021.210938 2225.585938 M 3068.007812 2261.992188 L 3062.8125 2267.1875 L 3047.1875 2267.1875 L 3036.796875 2256.796875 L 3036.796875 2236.015625 L 3047.1875 2225.585938 L 3062.8125 2225.585938 L 3068.007812 2230.78125 M 3078.398438 2256.796875 L 3088.789062 2267.1875 L 3104.414062 2267.1875 L 3114.804688 2256.796875 L 3114.804688 2236.015625 L 3104.414062 2225.585938 L 3088.789062 2225.585938 L 3078.398438 2236.015625 L 3078.398438 2256.796875 M 3135.585938 2267.1875 L 3135.585938 2210 M 3135.585938 2251.601562 L 3151.210938 2267.1875 L 3161.601562 2267.1875 L 3171.992188 2256.796875 L 3171.992188 2236.015625 L 3161.601562 2225.585938 L 3135.585938 2225.585938 M 3223.984375 2267.1875 L 3198.007812 2210 M 3187.617188 2267.1875 L 3208.398438 2230.78125 " transform="matrix(0.1,0,0,-0.1,0,252)"/>
<path style="fill:none;stroke-width:5.2;stroke-linecap:butt;stroke-linejoin:miter;stroke:rgb(0%,0%,0%);stroke-opacity:1;stroke-miterlimit:10;" d="M 2922.382812 2199.609375 L 2896.40625 2199.609375 L 2896.40625 2147.617188 M 2917.1875 2173.59375 L 2896.40625 2173.59375 M 2938.007812 2178.789062 L 2948.398438 2189.21875 L 2963.984375 2189.21875 L 2974.414062 2178.789062 L 2974.414062 2158.007812 L 2963.984375 2147.617188 L 2948.398438 2147.617188 L 2938.007812 2158.007812 L 2938.007812 2178.789062 M 2995.195312 2189.21875 L 2995.195312 2147.617188 M 2995.195312 2173.59375 L 3016.015625 2189.21875 M 3031.601562 2189.21875 L 3031.601562 2147.617188 M 3031.601562 2173.59375 L 3052.382812 2189.21875 L 3057.617188 2189.21875 L 3057.617188 2147.617188 M 3057.617188 2173.59375 L 3078.398438 2189.21875 L 3083.59375 2189.21875 L 3088.789062 2183.984375 L 3088.789062 2147.617188 M 3130.390625 2168.398438 L 3109.609375 2168.398438 L 3104.414062 2163.203125 L 3104.414062 2152.8125 L 3109.609375 2147.617188 L 3120 2147.617188 L 3130.390625 2152.8125 M 3104.414062 2183.984375 L 3109.609375 2189.21875 L 3125.195312 2189.21875 L 3130.390625 2183.984375 L 3130.390625 2147.617188 L 3135.585938 2147.617188 M 3151.210938 2199.609375 L 3151.210938 2152.8125 L 3156.40625 2147.617188 L 3166.796875 2147.617188 M 3146.015625 2189.21875 L 3166.796875 2189.21875 " transform="matrix(0.1,0,0,-0.1,0,252)"/>
<path style="fill:none;stroke-width:5.2;stroke-linecap:butt;stroke-linejoin:miter;stroke:rgb(0%,0%,0%);stroke-opacity:1;stroke-miterlimit:10;" d="M 3328.007812 1731.601562 L 2740.390625 1731.601562 " transform="matrix(0.1,0,0,-0.1,0,252)"/>
<path style="fill:none;stroke-width:5.2;stroke-linecap:butt;stroke-linejoin:miter;stroke:rgb(0%,0%,0%);stroke-opacity:1;stroke-miterlimit:10;" d="M 2860 2074.804688 L 2833.984375 2074.804688 L 2833.984375 2022.8125 L 2860 2022.8125 M 2833.984375 2048.789062 L 2854.804688 2048.789062 M 2880.78125 2043.59375 L 2901.601562 2043.59375 L 2911.992188 2053.984375 L 2911.992188 2069.609375 L 2906.796875 2074.804688 L 2880.78125 2074.804688 L 2880.78125 2022.8125 M 2958.789062 2069.609375 L 2953.59375 2074.804688 L 2932.8125 2074.804688 L 2927.617188 2069.609375 L 2927.617188 2059.21875 L 2958.789062 2043.59375 L 2958.789062 2028.007812 L 2953.59375 2022.8125 L 2932.8125 2022.8125 L 2927.617188 2028.007812 M 3010.78125 2074.804688 L 3010.78125 2022.8125 M 3036.796875 2064.414062 L 3036.796875 2022.8125 M 3036.796875 2048.789062 L 3057.617188 2064.414062 L 3062.8125 2064.414062 L 3062.8125 2022.8125 M 3062.8125 2048.789062 L 3083.59375 2064.414062 L 3088.789062 2064.414062 L 3093.984375 2059.21875 L 3093.984375 2022.8125 M 3135.585938 2043.59375 L 3114.804688 2043.59375 L 3109.609375 2038.398438 L 3109.609375 2028.007812 L 3114.804688 2022.8125 L 3125.195312 2022.8125 L 3135.585938 2028.007812 M 3109.609375 2059.21875 L 3114.804688 2064.414062 L 3130.390625 2064.414062 L 3135.585938 2059.21875 L 3135.585938 2022.8125 L 3140.78125 2022.8125 M 3187.617188 2038.398438 L 3171.992188 2028.007812 L 3161.601562 2028.007812 L 3151.210938 2038.398438 L 3151.210938 2053.984375 L 3161.601562 2064.414062 L 3187.617188 2064.414062 L 3187.617188 2012.382812 L 3182.382812 2007.1875 L 3156.40625 2007.1875 L 3151.210938 2012.382812 M 3203.203125 2043.59375 L 3234.414062 2043.59375 L 3234.414062 2059.21875 L 3229.21875 2064.414062 L 3213.59375 2064.414062 L 3203.203125 2053.984375 L 3203.203125 2033.203125 L 3213.59375 2022.8125 L 3229.21875 2022.8125 L 3234.414062 2028.007812 " transform="matrix(0.1,0,0,-0.1,0,252)"/>
<path style="fill:none;stroke-width:5.2;stroke-linecap:butt;stroke-linejoin:miter;stroke:rgb(0%,0%,0%);stroke-opacity:1;stroke-miterlimit:10;" d="M 2797.617188 1970.78125 L 2771.601562 1970.78125 L 2771.601562 1918.789062 L 2797.617188 1918.789062 M 2771.601562 1944.804688 L 2792.382812 1944.804688 M 2818.398438 1960.390625 L 2818.398438 1918.789062 M 2818.398438 1944.804688 L 2839.21875 1960.390625 L 2849.609375 1960.390625 L 2854.804688 1955.195312 L 2854.804688 1918.789062 M 2901.601562 1955.195312 L 2896.40625 1960.390625 L 2880.78125 1960.390625 L 2870.390625 1950 L 2870.390625 1929.21875 L 2880.78125 1918.789062 L 2896.40625 1918.789062 L 2901.601562 1923.984375 M 2938.007812 1939.609375 L 2917.1875 1939.609375 L 2911.992188 1934.414062 L 2911.992188 1923.984375 L 2917.1875 1918.789062 L 2927.617188 1918.789062 L 2938.007812 1923.984375 M 2911.992188 1955.195312 L 2917.1875 1960.390625 L 2932.8125 1960.390625 L 2938.007812 1955.195312 L 2938.007812 1918.789062 L 2943.203125 1918.789062 M 2958.789062 1960.390625 L 2958.789062 1903.203125 M 2958.789062 1944.804688 L 2974.414062 1960.390625 L 2984.804688 1960.390625 L 2995.195312 1950 L 2995.195312 1929.21875 L 2984.804688 1918.789062 L 2958.789062 1918.789062 M 3036.796875 1955.195312 L 3031.601562 1960.390625 L 3016.015625 1960.390625 L 3010.78125 1955.195312 L 3010.78125 1944.804688 L 3036.796875 1934.414062 L 3036.796875 1923.984375 L 3031.601562 1918.789062 L 3016.015625 1918.789062 L 3010.78125 1923.984375 M 3057.617188 1960.390625 L 3057.617188 1923.984375 L 3062.8125 1918.789062 L 3068.007812 1918.789062 L 3093.984375 1934.414062 M 3093.984375 1960.390625 L 3093.984375 1918.789062 M 3120 1976.015625 L 3120 1918.789062 M 3161.601562 1939.609375 L 3140.78125 1939.609375 L 3135.585938 1934.414062 L 3135.585938 1923.984375 L 3140.78125 1918.789062 L 3151.210938 1918.789062 L 3161.601562 1923.984375 M 3135.585938 1955.195312 L 3140.78125 1960.390625 L 3156.40625 1960.390625 L 3161.601562 1955.195312 L 3161.601562 1918.789062 L 3166.796875 1918.789062 M 3182.382812 1970.78125 L 3182.382812 1923.984375 L 3187.617188 1918.789062 L 3198.007812 1918.789062 M 3177.1875 1960.390625 L 3198.007812 1960.390625 M 3213.59375 1939.609375 L 3244.804688 1939.609375 L 3244.804688 1955.195312 L 3239.609375 1960.390625 L 3223.984375 1960.390625 L 3213.59375 1950 L 3213.59375 1929.21875 L 3223.984375 1918.789062 L 3239.609375 1918.789062 L 3244.804688 1923.984375 M 3296.796875 1929.21875 L 3281.210938 1918.789062 L 3270.78125 1918.789062 L 3260.390625 1929.21875 L 3260.390625 1950 L 3270.78125 1960.390625 L 3296.796875 1960.390625 M 3296.796875 1976.015625 L 3296.796875 1918.789062 " transform="matrix(0.1,0,0,-0.1,0,252)"/>
<path style="fill:none;stroke-width:5.2;stroke-linecap:butt;stroke-linejoin:miter;stroke:rgb(0%,0%,0%);stroke-opacity:1;stroke-miterlimit:10;" d="M 2833.984375 1861.601562 L 2854.804688 1861.601562 L 2865.195312 1871.992188 L 2865.195312 1887.617188 L 2860 1892.8125 L 2833.984375 1892.8125 L 2833.984375 1840.78125 M 2880.78125 1871.992188 L 2891.210938 1882.382812 L 2906.796875 1882.382812 L 2917.1875 1871.992188 L 2917.1875 1851.210938 L 2906.796875 1840.78125 L 2891.210938 1840.78125 L 2880.78125 1851.210938 L 2880.78125 1871.992188 M 2958.789062 1877.1875 L 2953.59375 1882.382812 L 2938.007812 1882.382812 L 2932.8125 1877.1875 L 2932.8125 1866.796875 L 2958.789062 1856.40625 L 2958.789062 1846.015625 L 2953.59375 1840.78125 L 2938.007812 1840.78125 L 2932.8125 1846.015625 M 2979.609375 1892.8125 L 2979.609375 1846.015625 L 2984.804688 1840.78125 L 2995.195312 1840.78125 M 2974.414062 1882.382812 L 2995.195312 1882.382812 M 3036.796875 1877.1875 L 3031.601562 1882.382812 L 3016.015625 1882.382812 L 3010.78125 1877.1875 L 3010.78125 1866.796875 L 3036.796875 1856.40625 L 3036.796875 1846.015625 L 3031.601562 1840.78125 L 3016.015625 1840.78125 L 3010.78125 1846.015625 M 3083.59375 1877.1875 L 3078.398438 1882.382812 L 3062.8125 1882.382812 L 3052.382812 1871.992188 L 3052.382812 1851.210938 L 3062.8125 1840.78125 L 3078.398438 1840.78125 L 3083.59375 1846.015625 M 3099.21875 1882.382812 L 3099.21875 1840.78125 M 3099.21875 1866.796875 L 3120 1882.382812 M 3140.78125 1898.007812 L 3140.78125 1892.8125 M 3140.78125 1877.1875 L 3140.78125 1840.78125 M 3161.601562 1882.382812 L 3161.601562 1825.195312 M 3161.601562 1866.796875 L 3177.1875 1882.382812 L 3187.617188 1882.382812 L 3198.007812 1871.992188 L 3198.007812 1851.210938 L 3187.617188 1840.78125 L 3161.601562 1840.78125 M 3218.789062 1892.8125 L 3218.789062 1846.015625 L 3223.984375 1840.78125 L 3234.414062 1840.78125 M 3213.59375 1882.382812 L 3234.414062 1882.382812 " transform="matrix(0.1,0,0,-0.1,0,252)"/>
<path style="fill:none;stroke-width:5.2;stroke-linecap:butt;stroke-linejoin:miter;stroke:rgb(0%,0%,0%);stroke-opacity:1;stroke-miterlimit:10;" d="M 2927.617188 1820 L 2927.617188 1814.804688 M 2927.617188 1799.21875 L 2927.617188 1762.8125 M 2948.398438 1804.414062 L 2948.398438 1762.8125 M 2948.398438 1788.789062 L 2969.21875 1804.414062 L 2974.414062 1804.414062 L 2974.414062 1762.8125 M 2974.414062 1788.789062 L 2995.195312 1804.414062 L 3000.390625 1804.414062 L 3005.585938 1799.21875 L 3005.585938 1762.8125 M 3047.1875 1783.59375 L 3026.40625 1783.59375 L 3021.210938 1778.398438 L 3021.210938 1768.007812 L 3026.40625 1762.8125 L 3036.796875 1762.8125 L 3047.1875 1768.007812 M 3021.210938 1799.21875 L 3026.40625 1804.414062 L 3041.992188 1804.414062 L 3047.1875 1799.21875 L 3047.1875 1762.8125 L 3052.382812 1762.8125 M 3099.21875 1778.398438 L 3083.59375 1768.007812 L 3073.203125 1768.007812 L 3062.8125 1778.398438 L 3062.8125 1793.984375 L 3073.203125 1804.414062 L 3099.21875 1804.414062 L 3099.21875 1752.382812 L 3093.984375 1747.1875 L 3068.007812 1747.1875 L 3062.8125 1752.382812 M 3114.804688 1783.59375 L 3146.015625 1783.59375 L 3146.015625 1799.21875 L 3140.78125 1804.414062 L 3125.195312 1804.414062 L 3114.804688 1793.984375 L 3114.804688 1773.203125 L 3125.195312 1762.8125 L 3140.78125 1762.8125 L 3146.015625 1768.007812 " transform="matrix(0.1,0,0,-0.1,0,252)"/>
<path style="fill:none;stroke-width:5.2;stroke-linecap:butt;stroke-linejoin:miter;stroke:rgb(0%,0%,0%);stroke-opacity:1;stroke-miterlimit:10;" d="M 3328.007812 1357.1875 L 2740.390625 1357.1875 " transform="matrix(0.1,0,0,-0.1,0,252)"/>
<path style="fill:none;stroke-width:5.2;stroke-linecap:butt;stroke-linejoin:miter;stroke:rgb(0%,0%,0%);stroke-opacity:1;stroke-miterlimit:10;" d="M 2865.195312 1700.390625 L 2839.21875 1700.390625 L 2839.21875 1648.398438 L 2865.195312 1648.398438 M 2839.21875 1674.414062 L 2860 1674.414062 M 2886.015625 1669.21875 L 2906.796875 1669.21875 L 2917.1875 1679.609375 L 2917.1875 1695.195312 L 2911.992188 1700.390625 L 2886.015625 1700.390625 L 2886.015625 1648.398438 M 2963.984375 1695.195312 L 2958.789062 1700.390625 L 2938.007812 1700.390625 L 2932.8125 1695.195312 L 2932.8125 1684.804688 L 2963.984375 1669.21875 L 2963.984375 1653.59375 L 2958.789062 1648.398438 L 2938.007812 1648.398438 L 2932.8125 1653.59375 M 3010.78125 1648.398438 L 3010.78125 1700.390625 L 3036.796875 1653.59375 L 3062.8125 1700.390625 L 3062.8125 1648.398438 M 3083.59375 1679.609375 L 3093.984375 1690 L 3109.609375 1690 L 3120 1679.609375 L 3120 1658.789062 L 3109.609375 1648.398438 L 3093.984375 1648.398438 L 3083.59375 1658.789062 L 3083.59375 1679.609375 M 3140.78125 1690 L 3140.78125 1648.398438 M 3140.78125 1674.414062 L 3161.601562 1690 L 3171.992188 1690 L 3177.1875 1684.804688 L 3177.1875 1648.398438 M 3192.8125 1679.609375 L 3203.203125 1690 L 3218.789062 1690 L 3229.21875 1679.609375 L 3229.21875 1658.789062 L 3218.789062 1648.398438 L 3203.203125 1648.398438 L 3192.8125 1658.789062 L 3192.8125 1679.609375 " transform="matrix(0.1,0,0,-0.1,0,252)"/>
<path style="fill:none;stroke-width:5.2;stroke-linecap:butt;stroke-linejoin:miter;stroke:rgb(0%,0%,0%);stroke-opacity:1;stroke-miterlimit:10;" d="M 2797.617188 1596.40625 L 2771.601562 1596.40625 L 2771.601562 1544.414062 L 2797.617188 1544.414062 M 2771.601562 1570.390625 L 2792.382812 1570.390625 M 2818.398438 1586.015625 L 2818.398438 1544.414062 M 2818.398438 1570.390625 L 2839.21875 1586.015625 L 2849.609375 1586.015625 L 2854.804688 1580.78125 L 2854.804688 1544.414062 M 2901.601562 1580.78125 L 2896.40625 1586.015625 L 2880.78125 1586.015625 L 2870.390625 1575.585938 L 2870.390625 1554.804688 L 2880.78125 1544.414062 L 2896.40625 1544.414062 L 2901.601562 1549.609375 M 2938.007812 1565.195312 L 2917.1875 1565.195312 L 2911.992188 1560 L 2911.992188 1549.609375 L 2917.1875 1544.414062 L 2927.617188 1544.414062 L 2938.007812 1549.609375 M 2911.992188 1580.78125 L 2917.1875 1586.015625 L 2932.8125 1586.015625 L 2938.007812 1580.78125 L 2938.007812 1544.414062 L 2943.203125 1544.414062 M 2958.789062 1586.015625 L 2958.789062 1528.789062 M 2958.789062 1570.390625 L 2974.414062 1586.015625 L 2984.804688 1586.015625 L 2995.195312 1575.585938 L 2995.195312 1554.804688 L 2984.804688 1544.414062 L 2958.789062 1544.414062 M 3036.796875 1580.78125 L 3031.601562 1586.015625 L 3016.015625 1586.015625 L 3010.78125 1580.78125 L 3010.78125 1570.390625 L 3036.796875 1560 L 3036.796875 1549.609375 L 3031.601562 1544.414062 L 3016.015625 1544.414062 L 3010.78125 1549.609375 M 3057.617188 1586.015625 L 3057.617188 1549.609375 L 3062.8125 1544.414062 L 3068.007812 1544.414062 L 3093.984375 1560 M 3093.984375 1586.015625 L 3093.984375 1544.414062 M 3120 1601.601562 L 3120 1544.414062 M 3161.601562 1565.195312 L 3140.78125 1565.195312 L 3135.585938 1560 L 3135.585938 1549.609375 L 3140.78125 1544.414062 L 3151.210938 1544.414062 L 3161.601562 1549.609375 M 3135.585938 1580.78125 L 3140.78125 1586.015625 L 3156.40625 1586.015625 L 3161.601562 1580.78125 L 3161.601562 1544.414062 L 3166.796875 1544.414062 M 3182.382812 1596.40625 L 3182.382812 1549.609375 L 3187.617188 1544.414062 L 3198.007812 1544.414062 M 3177.1875 1586.015625 L 3198.007812 1586.015625 M 3213.59375 1565.195312 L 3244.804688 1565.195312 L 3244.804688 1580.78125 L 3239.609375 1586.015625 L 3223.984375 1586.015625 L 3213.59375 1575.585938 L 3213.59375 1554.804688 L 3223.984375 1544.414062 L 3239.609375 1544.414062 L 3244.804688 1549.609375 M 3296.796875 1554.804688 L 3281.210938 1544.414062 L 3270.78125 1544.414062 L 3260.390625 1554.804688 L 3260.390625 1575.585938 L 3270.78125 1586.015625 L 3296.796875 1586.015625 M 3296.796875 1601.601562 L 3296.796875 1544.414062 " transform="matrix(0.1,0,0,-0.1,0,252)"/>
<path style="fill:none;stroke-width:5.2;stroke-linecap:butt;stroke-linejoin:miter;stroke:rgb(0%,0%,0%);stroke-opacity:1;stroke-miterlimit:10;" d="M 2833.984375 1487.1875 L 2854.804688 1487.1875 L 2865.195312 1497.617188 L 2865.195312 1513.203125 L 2860 1518.398438 L 2833.984375 1518.398438 L 2833.984375 1466.40625 M 2880.78125 1497.617188 L 2891.210938 1508.007812 L 2906.796875 1508.007812 L 2917.1875 1497.617188 L 2917.1875 1476.796875 L 2906.796875 1466.40625 L 2891.210938 1466.40625 L 2880.78125 1476.796875 L 2880.78125 1497.617188 M 2958.789062 1502.8125 L 2953.59375 1508.007812 L 2938.007812 1508.007812 L 2932.8125 1502.8125 L 2932.8125 1492.382812 L 2958.789062 1481.992188 L 2958.789062 1471.601562 L 2953.59375 1466.40625 L 2938.007812 1466.40625 L 2932.8125 1471.601562 M 2979.609375 1518.398438 L 2979.609375 1471.601562 L 2984.804688 1466.40625 L 2995.195312 1466.40625 M 2974.414062 1508.007812 L 2995.195312 1508.007812 M 3036.796875 1502.8125 L 3031.601562 1508.007812 L 3016.015625 1508.007812 L 3010.78125 1502.8125 L 3010.78125 1492.382812 L 3036.796875 1481.992188 L 3036.796875 1471.601562 L 3031.601562 1466.40625 L 3016.015625 1466.40625 L 3010.78125 1471.601562 M 3083.59375 1502.8125 L 3078.398438 1508.007812 L 3062.8125 1508.007812 L 3052.382812 1497.617188 L 3052.382812 1476.796875 L 3062.8125 1466.40625 L 3078.398438 1466.40625 L 3083.59375 1471.601562 M 3099.21875 1508.007812 L 3099.21875 1466.40625 M 3099.21875 1492.382812 L 3120 1508.007812 M 3140.78125 1523.59375 L 3140.78125 1518.398438 M 3140.78125 1502.8125 L 3140.78125 1466.40625 M 3161.601562 1508.007812 L 3161.601562 1450.78125 M 3161.601562 1492.382812 L 3177.1875 1508.007812 L 3187.617188 1508.007812 L 3198.007812 1497.617188 L 3198.007812 1476.796875 L 3187.617188 1466.40625 L 3161.601562 1466.40625 M 3218.789062 1518.398438 L 3218.789062 1471.601562 L 3223.984375 1466.40625 L 3234.414062 1466.40625 M 3213.59375 1508.007812 L 3234.414062 1508.007812 " transform="matrix(0.1,0,0,-0.1,0,252)"/>
<path style="fill:none;stroke-width:5.2;stroke-linecap:butt;stroke-linejoin:miter;stroke:rgb(0%,0%,0%);stroke-opacity:1;stroke-miterlimit:10;" d="M 2823.59375 1430 L 2823.59375 1388.398438 M 2823.59375 1414.414062 L 2844.414062 1430 L 2849.609375 1430 L 2849.609375 1388.398438 M 2849.609375 1414.414062 L 2870.390625 1430 L 2875.585938 1430 L 2880.78125 1424.804688 L 2880.78125 1388.398438 M 2896.40625 1419.609375 L 2906.796875 1430 L 2922.382812 1430 L 2932.8125 1419.609375 L 2932.8125 1398.789062 L 2922.382812 1388.398438 L 2906.796875 1388.398438 L 2896.40625 1398.789062 L 2896.40625 1419.609375 M 2953.59375 1430 L 2953.59375 1388.398438 M 2953.59375 1414.414062 L 2974.414062 1430 L 2984.804688 1430 L 2990 1424.804688 L 2990 1388.398438 M 3005.585938 1419.609375 L 3016.015625 1430 L 3031.601562 1430 L 3041.992188 1419.609375 L 3041.992188 1398.789062 L 3031.601562 1388.398438 L 3016.015625 1388.398438 L 3005.585938 1398.789062 L 3005.585938 1419.609375 M 3088.789062 1430 L 3088.789062 1372.8125 M 3088.789062 1414.414062 L 3104.414062 1430 L 3114.804688 1430 L 3125.195312 1419.609375 L 3125.195312 1398.789062 L 3114.804688 1388.398438 L 3088.789062 1388.398438 M 3151.210938 1445.585938 L 3151.210938 1388.398438 M 3166.796875 1419.609375 L 3177.1875 1430 L 3192.8125 1430 L 3203.203125 1419.609375 L 3203.203125 1398.789062 L 3192.8125 1388.398438 L 3177.1875 1388.398438 L 3166.796875 1398.789062 L 3166.796875 1419.609375 M 3223.984375 1440.390625 L 3223.984375 1393.59375 L 3229.21875 1388.398438 L 3239.609375 1388.398438 M 3218.789062 1430 L 3239.609375 1430 " transform="matrix(0.1,0,0,-0.1,0,252)"/>
<path style="fill:none;stroke-width:5.2;stroke-linecap:butt;stroke-linejoin:miter;stroke:rgb(0%,0%,0%);stroke-opacity:1;stroke-miterlimit:10;" d="M 3328.007812 982.8125 L 2740.390625 982.8125 " transform="matrix(0.1,0,0,-0.1,0,252)"/>
<path style="fill:none;stroke-width:5.2;stroke-linecap:butt;stroke-linejoin:miter;stroke:rgb(0%,0%,0%);stroke-opacity:1;stroke-miterlimit:10;" d="M 2875.585938 1326.015625 L 2849.609375 1326.015625 L 2849.609375 1273.984375 L 2875.585938 1273.984375 M 2849.609375 1300 L 2870.390625 1300 M 2896.40625 1294.804688 L 2917.1875 1294.804688 L 2927.617188 1305.195312 L 2927.617188 1320.78125 L 2922.382812 1326.015625 L 2896.40625 1326.015625 L 2896.40625 1273.984375 M 2974.414062 1320.78125 L 2969.21875 1326.015625 L 2948.398438 1326.015625 L 2943.203125 1320.78125 L 2943.203125 1310.390625 L 2974.414062 1294.804688 L 2974.414062 1279.21875 L 2969.21875 1273.984375 L 2948.398438 1273.984375 L 2943.203125 1279.21875 M 3057.617188 1320.78125 L 3052.382812 1326.015625 L 3031.601562 1326.015625 L 3021.210938 1320.78125 L 3016.015625 1310.390625 L 3016.015625 1289.609375 L 3021.210938 1279.21875 L 3031.601562 1273.984375 L 3052.382812 1273.984375 L 3057.617188 1279.21875 M 3068.007812 1305.195312 L 3078.398438 1315.585938 L 3093.984375 1315.585938 L 3104.414062 1305.195312 L 3104.414062 1284.414062 L 3093.984375 1273.984375 L 3078.398438 1273.984375 L 3068.007812 1284.414062 L 3068.007812 1305.195312 M 3130.390625 1331.210938 L 3130.390625 1273.984375 M 3146.015625 1305.195312 L 3156.40625 1315.585938 L 3171.992188 1315.585938 L 3182.382812 1305.195312 L 3182.382812 1284.414062 L 3171.992188 1273.984375 L 3156.40625 1273.984375 L 3146.015625 1284.414062 L 3146.015625 1305.195312 M 3203.203125 1315.585938 L 3203.203125 1273.984375 M 3203.203125 1300 L 3223.984375 1315.585938 " transform="matrix(0.1,0,0,-0.1,0,252)"/>
<path style="fill:none;stroke-width:5.2;stroke-linecap:butt;stroke-linejoin:miter;stroke:rgb(0%,0%,0%);stroke-opacity:1;stroke-miterlimit:10;" d="M 2797.617188 1221.992188 L 2771.601562 1221.992188 L 2771.601562 1170 L 2797.617188 1170 M 2771.601562 1196.015625 L 2792.382812 1196.015625 M 2818.398438 1211.601562 L 2818.398438 1170 M 2818.398438 1196.015625 L 2839.21875 1211.601562 L 2849.609375 1211.601562 L 2854.804688 1206.40625 L 2854.804688 1170 M 2901.601562 1206.40625 L 2896.40625 1211.601562 L 2880.78125 1211.601562 L 2870.390625 1201.210938 L 2870.390625 1180.390625 L 2880.78125 1170 L 2896.40625 1170 L 2901.601562 1175.195312 M 2938.007812 1190.78125 L 2917.1875 1190.78125 L 2911.992188 1185.585938 L 2911.992188 1175.195312 L 2917.1875 1170 L 2927.617188 1170 L 2938.007812 1175.195312 M 2911.992188 1206.40625 L 2917.1875 1211.601562 L 2932.8125 1211.601562 L 2938.007812 1206.40625 L 2938.007812 1170 L 2943.203125 1170 M 2958.789062 1211.601562 L 2958.789062 1154.414062 M 2958.789062 1196.015625 L 2974.414062 1211.601562 L 2984.804688 1211.601562 L 2995.195312 1201.210938 L 2995.195312 1180.390625 L 2984.804688 1170 L 2958.789062 1170 M 3036.796875 1206.40625 L 3031.601562 1211.601562 L 3016.015625 1211.601562 L 3010.78125 1206.40625 L 3010.78125 1196.015625 L 3036.796875 1185.585938 L 3036.796875 1175.195312 L 3031.601562 1170 L 3016.015625 1170 L 3010.78125 1175.195312 M 3057.617188 1211.601562 L 3057.617188 1175.195312 L 3062.8125 1170 L 3068.007812 1170 L 3093.984375 1185.585938 M 3093.984375 1211.601562 L 3093.984375 1170 M 3120 1227.1875 L 3120 1170 M 3161.601562 1190.78125 L 3140.78125 1190.78125 L 3135.585938 1185.585938 L 3135.585938 1175.195312 L 3140.78125 1170 L 3151.210938 1170 L 3161.601562 1175.195312 M 3135.585938 1206.40625 L 3140.78125 1211.601562 L 3156.40625 1211.601562 L 3161.601562 1206.40625 L 3161.601562 1170 L 3166.796875 1170 M 3182.382812 1221.992188 L 3182.382812 1175.195312 L 3187.617188 1170 L 3198.007812 1170 M 3177.1875 1211.601562 L 3198.007812 1211.601562 M 3213.59375 1190.78125 L 3244.804688 1190.78125 L 3244.804688 1206.40625 L 3239.609375 1211.601562 L 3223.984375 1211.601562 L 3213.59375 1201.210938 L 3213.59375 1180.390625 L 3223.984375 1170 L 3239.609375 1170 L 3244.804688 1175.195312 M 3296.796875 1180.390625 L 3281.210938 1170 L 3270.78125 1170 L 3260.390625 1180.390625 L 3260.390625 1201.210938 L 3270.78125 1211.601562 L 3296.796875 1211.601562 M 3296.796875 1227.1875 L 3296.796875 1170 " transform="matrix(0.1,0,0,-0.1,0,252)"/>
<path style="fill:none;stroke-width:5.2;stroke-linecap:butt;stroke-linejoin:miter;stroke:rgb(0%,0%,0%);stroke-opacity:1;stroke-miterlimit:10;" d="M 2833.984375 1112.8125 L 2854.804688 1112.8125 L 2865.195312 1123.203125 L 2865.195312 1138.789062 L 2860 1143.984375 L 2833.984375 1143.984375 L 2833.984375 1091.992188 M 2880.78125 1123.203125 L 2891.210938 1133.59375 L 2906.796875 1133.59375 L 2917.1875 1123.203125 L 2917.1875 1102.382812 L 2906.796875 1091.992188 L 2891.210938 1091.992188 L 2880.78125 1102.382812 L 2880.78125 1123.203125 M 2958.789062 1128.398438 L 2953.59375 1133.59375 L 2938.007812 1133.59375 L 2932.8125 1128.398438 L 2932.8125 1118.007812 L 2958.789062 1107.617188 L 2958.789062 1097.1875 L 2953.59375 1091.992188 L 2938.007812 1091.992188 L 2932.8125 1097.1875 M 2979.609375 1143.984375 L 2979.609375 1097.1875 L 2984.804688 1091.992188 L 2995.195312 1091.992188 M 2974.414062 1133.59375 L 2995.195312 1133.59375 M 3036.796875 1128.398438 L 3031.601562 1133.59375 L 3016.015625 1133.59375 L 3010.78125 1128.398438 L 3010.78125 1118.007812 L 3036.796875 1107.617188 L 3036.796875 1097.1875 L 3031.601562 1091.992188 L 3016.015625 1091.992188 L 3010.78125 1097.1875 M 3083.59375 1128.398438 L 3078.398438 1133.59375 L 3062.8125 1133.59375 L 3052.382812 1123.203125 L 3052.382812 1102.382812 L 3062.8125 1091.992188 L 3078.398438 1091.992188 L 3083.59375 1097.1875 M 3099.21875 1133.59375 L 3099.21875 1091.992188 M 3099.21875 1118.007812 L 3120 1133.59375 M 3140.78125 1149.21875 L 3140.78125 1143.984375 M 3140.78125 1128.398438 L 3140.78125 1091.992188 M 3161.601562 1133.59375 L 3161.601562 1076.40625 M 3161.601562 1118.007812 L 3177.1875 1133.59375 L 3187.617188 1133.59375 L 3198.007812 1123.203125 L 3198.007812 1102.382812 L 3187.617188 1091.992188 L 3161.601562 1091.992188 M 3218.789062 1143.984375 L 3218.789062 1097.1875 L 3223.984375 1091.992188 L 3234.414062 1091.992188 M 3213.59375 1133.59375 L 3234.414062 1133.59375 " transform="matrix(0.1,0,0,-0.1,0,252)"/>
<path style="fill:none;stroke-width:5.2;stroke-linecap:butt;stroke-linejoin:miter;stroke:rgb(0%,0%,0%);stroke-opacity:1;stroke-miterlimit:10;" d="M 2865.195312 1050.390625 L 2860 1055.585938 L 2844.414062 1055.585938 L 2833.984375 1045.195312 L 2833.984375 1024.414062 L 2844.414062 1013.984375 L 2860 1013.984375 L 2865.195312 1019.21875 M 2875.585938 1045.195312 L 2886.015625 1055.585938 L 2901.601562 1055.585938 L 2911.992188 1045.195312 L 2911.992188 1024.414062 L 2901.601562 1013.984375 L 2886.015625 1013.984375 L 2875.585938 1024.414062 L 2875.585938 1045.195312 M 2938.007812 1071.210938 L 2938.007812 1013.984375 M 2953.59375 1045.195312 L 2963.984375 1055.585938 L 2979.609375 1055.585938 L 2990 1045.195312 L 2990 1024.414062 L 2979.609375 1013.984375 L 2963.984375 1013.984375 L 2953.59375 1024.414062 L 2953.59375 1045.195312 M 3010.78125 1055.585938 L 3010.78125 1013.984375 M 3010.78125 1040 L 3031.601562 1055.585938 M 3073.203125 1055.585938 L 3073.203125 998.398438 M 3073.203125 1040 L 3088.789062 1055.585938 L 3099.21875 1055.585938 L 3109.609375 1045.195312 L 3109.609375 1024.414062 L 3099.21875 1013.984375 L 3073.203125 1013.984375 M 3135.585938 1071.210938 L 3135.585938 1013.984375 M 3151.210938 1045.195312 L 3161.601562 1055.585938 L 3177.1875 1055.585938 L 3187.617188 1045.195312 L 3187.617188 1024.414062 L 3177.1875 1013.984375 L 3161.601562 1013.984375 L 3151.210938 1024.414062 L 3151.210938 1045.195312 M 3208.398438 1066.015625 L 3208.398438 1019.21875 L 3213.59375 1013.984375 L 3223.984375 1013.984375 M 3203.203125 1055.585938 L 3223.984375 1055.585938 " transform="matrix(0.1,0,0,-0.1,0,252)"/>
<path style="fill:none;stroke-width:5.2;stroke-linecap:butt;stroke-linejoin:miter;stroke:rgb(0%,0%,0%);stroke-opacity:1;stroke-miterlimit:10;" d="M 3328.007812 608.398438 L 2740.390625 608.398438 " transform="matrix(0.1,0,0,-0.1,0,252)"/>
<path style="fill:none;stroke-width:5.2;stroke-linecap:butt;stroke-linejoin:miter;stroke:rgb(0%,0%,0%);stroke-opacity:1;stroke-miterlimit:10;" d="M 2932.8125 873.59375 L 2932.8125 821.601562 M 2974.414062 873.59375 L 2974.414062 821.601562 M 2932.8125 847.617188 L 2974.414062 847.617188 M 3000.390625 842.382812 L 3021.210938 842.382812 L 3031.601562 852.8125 L 3031.601562 868.398438 L 3026.40625 873.59375 L 3000.390625 873.59375 L 3000.390625 821.601562 M 3088.789062 868.398438 L 3083.59375 873.59375 L 3062.8125 873.59375 L 3052.382812 868.398438 L 3047.1875 858.007812 L 3047.1875 837.1875 L 3052.382812 826.796875 L 3062.8125 821.601562 L 3088.789062 821.601562 L 3088.789062 842.382812 L 3083.59375 842.382812 M 3109.609375 873.59375 L 3109.609375 821.601562 L 3135.585938 821.601562 " transform="matrix(0.1,0,0,-0.1,0,252)"/>
<path style="fill:none;stroke-width:5.2;stroke-linecap:butt;stroke-linejoin:miter;stroke:rgb(0%,0%,0%);stroke-opacity:1;stroke-miterlimit:10;" d="M 2870.390625 764.414062 L 2865.195312 769.609375 L 2844.414062 769.609375 L 2833.984375 764.414062 L 2828.789062 753.984375 L 2828.789062 733.203125 L 2833.984375 722.8125 L 2844.414062 717.617188 L 2865.195312 717.617188 L 2870.390625 722.8125 M 2880.78125 748.789062 L 2891.210938 759.179688 L 2906.796875 759.179688 L 2917.1875 748.789062 L 2917.1875 728.007812 L 2906.796875 717.617188 L 2891.210938 717.617188 L 2880.78125 728.007812 L 2880.78125 748.789062 M 2943.203125 774.804688 L 2943.203125 717.617188 M 2958.789062 748.789062 L 2969.21875 759.179688 L 2984.804688 759.179688 L 2995.195312 748.789062 L 2995.195312 728.007812 L 2984.804688 717.617188 L 2969.21875 717.617188 L 2958.789062 728.007812 L 2958.789062 748.789062 M 3016.015625 759.179688 L 3016.015625 717.617188 M 3016.015625 743.59375 L 3036.796875 759.179688 M 3078.398438 759.179688 L 3078.398438 701.992188 M 3078.398438 743.59375 L 3093.984375 759.179688 L 3104.414062 759.179688 L 3114.804688 748.789062 L 3114.804688 728.007812 L 3104.414062 717.617188 L 3078.398438 717.617188 M 3140.78125 774.804688 L 3140.78125 717.617188 M 3156.40625 748.789062 L 3166.796875 759.179688 L 3182.382812 759.179688 L 3192.8125 748.789062 L 3192.8125 728.007812 L 3182.382812 717.617188 L 3166.796875 717.617188 L 3156.40625 728.007812 L 3156.40625 748.789062 M 3213.59375 769.609375 L 3213.59375 722.8125 L 3218.789062 717.617188 L 3229.21875 717.617188 M 3208.398438 759.179688 L 3229.21875 759.179688 " transform="matrix(0.1,0,0,-0.1,0,252)"/>
<path style="fill:none;stroke-width:5.2;stroke-linecap:butt;stroke-linejoin:miter;stroke:rgb(0%,0%,0%);stroke-opacity:1;stroke-miterlimit:10;" d="M 3328.007812 233.984375 L 2740.390625 233.984375 " transform="matrix(0.1,0,0,-0.1,0,252)"/>
<path style="fill:none;stroke-width:5.2;stroke-linecap:butt;stroke-linejoin:miter;stroke:rgb(0%,0%,0%);stroke-opacity:1;stroke-miterlimit:10;" d="M 2875.585938 457.617188 L 2917.1875 457.617188 M 2938.007812 473.203125 L 2938.007812 431.601562 M 2938.007812 457.617188 L 2958.789062 473.203125 L 2963.984375 473.203125 L 2963.984375 431.601562 M 2963.984375 457.617188 L 2984.804688 473.203125 L 2990 473.203125 L 2995.195312 468.007812 L 2995.195312 431.601562 M 3010.78125 462.8125 L 3021.210938 473.203125 L 3036.796875 473.203125 L 3047.1875 462.8125 L 3047.1875 441.992188 L 3036.796875 431.601562 L 3021.210938 431.601562 L 3010.78125 441.992188 L 3010.78125 462.8125 M 3068.007812 473.203125 L 3068.007812 431.601562 M 3068.007812 457.617188 L 3088.789062 473.203125 M 3099.21875 452.382812 L 3130.390625 452.382812 L 3130.390625 468.007812 L 3125.195312 473.203125 L 3109.609375 473.203125 L 3099.21875 462.8125 L 3099.21875 441.992188 L 3109.609375 431.601562 L 3125.195312 431.601562 L 3130.390625 436.796875 M 3146.015625 457.617188 L 3187.617188 457.617188 " transform="matrix(0.1,0,0,-0.1,0,252)"/>
<path style="fill:none;stroke-width:5.2;stroke-linecap:butt;stroke-linejoin:miter;stroke:rgb(0%,0%,0%);stroke-opacity:1;stroke-miterlimit:10;" d="M 2922.382812 400.390625 L 2927.617188 405.585938 L 2948.398438 405.585938 L 2953.59375 400.390625 L 2953.59375 390 L 2943.203125 379.609375 L 2932.8125 379.609375 L 2943.203125 379.609375 L 2953.59375 369.179688 L 2953.59375 358.789062 L 2948.398438 353.59375 L 2927.617188 353.59375 L 2922.382812 358.789062 M 2995.195312 384.804688 L 3005.585938 395.195312 L 3021.210938 395.195312 L 3031.601562 384.804688 L 3031.601562 363.984375 L 3021.210938 353.59375 L 3005.585938 353.59375 L 2995.195312 363.984375 L 2995.195312 384.804688 M 3068.007812 410.820312 L 3057.617188 410.820312 L 3052.382812 405.585938 L 3052.382812 353.59375 M 3047.1875 395.195312 L 3068.007812 395.195312 M 3109.609375 400.390625 L 3114.804688 405.585938 L 3135.585938 405.585938 L 3140.78125 400.390625 L 3140.78125 390 L 3130.390625 379.609375 L 3120 379.609375 L 3130.390625 379.609375 L 3140.78125 369.179688 L 3140.78125 358.789062 L 3135.585938 353.59375 L 3114.804688 353.59375 L 3109.609375 358.789062 " transform="matrix(0.1,0,0,-0.1,0,252)"/>
<path style="fill:none;stroke-width:5.2;stroke-linecap:butt;stroke-linejoin:miter;stroke:rgb(0%,0%,0%);stroke-opacity:1;stroke-miterlimit:10;" d="M 790.390625 2412.8125 L 790.390625 2329.609375 M 790.390625 2371.210938 L 2095.585938 2371.210938 M 2095.585938 2412.8125 L 2095.585938 2329.609375 " transform="matrix(0.1,0,0,-0.1,0,252)"/>
<path style="fill:none;stroke-width:5.2;stroke-linecap:butt;stroke-linejoin:miter;stroke:rgb(0%,0%,0%);stroke-opacity:1;stroke-miterlimit:10;" d="M 46.796875 1289.609375 L 46.796875 1237.617188 M 31.210938 1284.414062 L 46.796875 1284.414062 M 98.789062 1263.59375 L 98.789062 1248.007812 L 114.414062 1263.59375 L 98.789062 1279.21875 L 98.789062 1263.59375 L 72.8125 1263.59375 " transform="matrix(0.1,0,0,-0.1,0,252)"/>
<path style="fill:none;stroke-width:5.2;stroke-linecap:butt;stroke-linejoin:miter;stroke:rgb(0%,0%,0%);stroke-opacity:1;stroke-miterlimit:10;" d="M 811.210938 2391.992188 L 852.8125 2391.992188 M 831.992188 2391.992188 L 831.992188 2340 " transform="matrix(0.1,0,0,-0.1,0,252)"/>
<path style="fill:none;stroke-width:5.2;stroke-linecap:butt;stroke-linejoin:miter;stroke:rgb(0%,0%,0%);stroke-opacity:1;stroke-miterlimit:10;" d="M 785.195312 2397.1875 L 769.609375 2397.1875 L 769.609375 2329.609375 L 785.195312 2329.609375 " transform="matrix(0.1,0,0,-0.1,0,252)"/>
<path style="fill:none;stroke-width:5.2;stroke-linecap:butt;stroke-linejoin:miter;stroke:rgb(0%,0%,0%);stroke-opacity:1;stroke-miterlimit:10;" d="M 2064.414062 2397.1875 L 2080 2397.1875 L 2080 2329.609375 L 2064.414062 2329.609375 " transform="matrix(0.1,0,0,-0.1,0,252)"/>
<path style="fill:none;stroke-width:5.2;stroke-linecap:butt;stroke-linejoin:miter;stroke:rgb(0%,0%,0%);stroke-opacity:1;stroke-miterlimit:10;" d="M 26.015625 291.210938 L 31.210938 296.40625 L 51.992188 296.40625 L 57.1875 291.210938 L 57.1875 275.585938 L 26.015625 249.609375 L 26.015625 244.414062 L 57.1875 244.414062 M 93.59375 260 L 78.007812 260 L 93.59375 244.414062 L 109.179688 260 L 93.59375 260 L 93.59375 296.40625 " transform="matrix(0.1,0,0,-0.1,0,252)"/>
<path style="fill:none;stroke-width:5.2;stroke-linecap:butt;stroke-linejoin:miter;stroke:rgb(0%,0%,0%);stroke-opacity:1;stroke-miterlimit:10;" d="M 2693.59375 1606.796875 L 2693.59375 1580.78125 L 2667.617188 1606.796875 L 2693.59375 1632.8125 L 2693.59375 1606.796875 L 2719.609375 1606.796875 " transform="matrix(0.1,0,0,-0.1,0,252)"/>
</g>
</svg>
